<svg width="76" height="77" viewBox="0 0 76 77" fill="none" xmlns="http://www.w3.org/2000/svg">
<g clip-path="url(#clip0_5916_1140)">
<path d="M0 16C0 7.16345 7.16344 0 16 0H60C68.8366 0 76 7.16344 76 16V77H0V16Z" fill="#19AA1E"/>
<mask id="mask0_5916_1140" style="mask-type:alpha" maskUnits="userSpaceOnUse" x="0" y="-12" width="76" height="76">
<path d="M57.1292 63.9649C58.8085 63.9297 60.4995 63.8239 62.155 63.5307C63.8343 63.2254 65.4078 62.7561 66.9345 61.9698C68.4494 61.2187 69.8231 60.2212 71.0093 59.0477C72.1953 57.8741 73.2051 56.5127 73.9569 55.0222C74.7318 53.5082 75.2251 51.9711 75.5304 50.3045C75.8356 48.6616 75.9297 46.995 75.9649 45.3287C75.9883 44.5658 75.9883 43.803 76 43.0401V8.94813C76 8.18532 76 7.4225 75.9649 6.65968C75.9297 5.00494 75.8239 3.32676 75.5304 1.68377C75.2251 0.0173101 74.7318 -1.53182 73.9569 -3.03396C73.1934 -4.51267 72.1953 -5.87399 71.0093 -7.0593C69.8231 -8.23287 68.4377 -9.23039 66.9345 -9.98147C65.3961 -10.7443 63.8343 -11.2372 62.155 -11.5423C60.4995 -11.8357 58.8085 -11.9413 57.1292 -11.9765C56.8122 -11.9765 56.4949 -11.9883 55.9784 -12H22.1353L18.8943 -11.9648C17.2151 -11.9296 15.5241 -11.824 13.8684 -11.5306C12.1891 -11.2254 10.6156 -10.7443 9.089 -9.96973C7.57416 -9.21865 6.20024 -8.22112 5.01423 -7.04755C3.82818 -5.87399 2.8183 -4.51267 2.06675 -3.02225C1.27998 -1.50833 0.798516 0.029027 0.493202 1.69549C0.176143 3.33848 0.0822003 5.00494 0.0352285 6.6714C0.0117429 7.43421 0.0117429 8.19703 0 8.95985V43.0519C0 43.8147 0.0117429 44.5776 0.0352285 45.3404C0.0704574 46.995 0.176143 48.6733 0.469715 50.3162C0.775032 51.9828 1.26823 53.532 2.04326 55.0339C2.80655 56.5127 3.80469 57.8741 4.99073 59.0594C6.17677 60.2329 7.56241 61.2304 9.0655 61.9816C10.6038 62.7444 12.1656 63.2372 13.8449 63.5424C15.5006 63.8356 17.1916 63.9414 18.8708 63.9766C19.1879 63.9766 19.505 63.9883 20.0216 64H52.0679L57.1058 63.9766L57.1292 63.9649Z" fill="#299400"/>
</mask>
<g mask="url(#mask0_5916_1140)">
<path d="M0 -12H76V64H0V-12Z" fill="#19AA1E"/>
<path fill-rule="evenodd" clip-rule="evenodd" d="M0 -12H76V12.9375L0 1.0625V-12Z" fill="#FFB919"/>
<path fill-rule="evenodd" clip-rule="evenodd" d="M0 55.6875L76 43.8125V64H0V55.6875Z" fill="#82D714"/>
<path fill-rule="evenodd" clip-rule="evenodd" d="M0 -0.433838L26.5284 3.71117C29.8307 1.62085 33.7595 0.474774 38 0.474774C43.8732 0.474774 49.1486 2.67339 52.9897 6.53429C53.4746 7.02148 53.9318 7.53087 54.3603 8.05996L76 11.4411V14.4459L56.5576 11.408C58.0019 14.1799 58.7812 17.2683 58.7812 20.42C58.7812 24.4917 57.8705 28.5514 55.9879 32.6275L55.9306 32.751L55.131 34.4642H53.2402C49.336 34.4642 46.7463 35.6321 45.0531 37.7018C43.7238 39.3269 42.9549 41.5176 42.6962 43.9078L42.6883 43.9826L42.6506 44.3645L42.6344 44.5307L42.6037 44.8556C42.5046 45.9228 42.4384 46.8278 42.4048 47.5653L76 42.3163V45.3208L0 57.1958V54.1913L33.6329 48.9359L33.6183 48.2614L33.6138 48.0711L33.611 47.9735L33.6056 47.8231C33.5755 47.0052 33.5005 45.9567 33.3805 44.6859L33.3574 44.4449L33.3162 44.0275C33.0749 41.6247 32.3174 39.4061 30.9916 37.7569C29.3161 35.6732 26.7502 34.4883 22.8775 34.4645L22.7597 34.4642H20.869L20.0695 32.751C18.148 28.6334 17.2188 24.5329 17.2188 20.42C17.2188 15.2479 19.3171 10.2464 23.0103 6.53429C23.1169 6.42713 23.2246 6.32124 23.3334 6.21664L0 2.57086V-0.433838Z" fill="white"/>
<path fill-rule="evenodd" clip-rule="evenodd" d="M38 3.4375C48.6102 3.4375 55.8125 11.6042 55.8125 20.414C55.8125 23.9509 55.0408 27.6312 53.2402 31.4894C42.7997 31.4894 40.2227 38.9666 39.7353 43.671L39.7043 43.9845C39.539 45.6635 39.4437 47.0106 39.4174 48.0261L36.5896 48.4682L36.5889 48.3767C36.5782 47.312 36.4775 45.8186 36.2871 43.8965L36.2789 43.8125C35.8286 39.1183 33.3057 31.4894 22.7597 31.4894C20.9592 27.6312 20.1875 23.9509 20.1875 20.414C20.1875 11.6042 27.3897 3.4375 38 3.4375Z" fill="#0073FA"/>
</g>
</g>
<defs>
<clipPath id="clip0_5916_1140">
<path d="M0 16C0 7.16345 7.16344 0 16 0H60C68.8366 0 76 7.16344 76 16V77H0V16Z" fill="white"/>
</clipPath>
</defs>
</svg>
