<svg width="28" height="29" viewBox="0 0 28 29" fill="none" xmlns="http://www.w3.org/2000/svg">
<rect y="0.5" width="28" height="28" rx="10" fill="url(#paint0_linear_4203_8878)" fill-opacity="0.8"/>
<path fill-rule="evenodd" clip-rule="evenodd" d="M7.43974 13.6244C11.521 11.8463 14.2425 10.674 15.6042 10.1076C19.4922 8.49052 20.3001 8.20959 20.8266 8.20029C20.9424 8.19827 21.2014 8.22698 21.3691 8.3631C21.6179 8.565 21.6193 9.00327 21.5917 9.29333C21.381 11.5071 20.4694 16.8792 20.0056 19.3586C19.8093 20.4077 19.4229 20.7596 19.0488 20.794C18.2358 20.8688 17.6185 20.2566 16.831 19.7405C15.5988 18.9328 14.9027 18.43 13.7067 17.6418C12.3244 16.7309 13.2205 16.2303 14.0082 15.4122C14.2144 15.1981 17.7965 11.9398 17.8658 11.6442C17.8745 11.6073 17.8825 11.4695 17.8007 11.3967C17.7188 11.324 17.598 11.3488 17.5108 11.3686C17.3872 11.3967 15.4188 12.6977 11.6056 15.2718C11.0468 15.6555 10.5407 15.8424 10.0873 15.8326C9.58743 15.8218 8.62591 15.55 7.91109 15.3176C7.03434 15.0326 6.33751 14.8819 6.39822 14.3979C6.42983 14.1458 6.77698 13.888 7.43974 13.6244Z" fill="#F4F4F4"/>
<defs>
<linearGradient id="paint0_linear_4203_8878" x1="14" y1="0.5" x2="14" y2="28.2813" gradientUnits="userSpaceOnUse">
<stop stop-color="#2AABEE"/>
<stop offset="1" stop-color="#229ED9"/>
</linearGradient>
</defs>
</svg>
