<svg width="28" height="29" viewBox="0 0 28 29" fill="none" xmlns="http://www.w3.org/2000/svg">
<g clip-path="url(#clip0_4203_8890)">
<rect y="0.5" width="28" height="28" rx="10" fill="#006DE7" fill-opacity="0.8"/>
<path fill-rule="evenodd" clip-rule="evenodd" d="M11.0944 9.75047H13.8593C14.1969 9.75047 14.5663 9.85694 14.8093 10.1942C15.0149 10.4795 15.0373 10.8139 15.0373 11.0281V13.809C15.8489 12.8597 16.5154 11.8111 17.0186 10.6933C17.136 10.417 17.3392 10.1899 17.5915 10.0377C17.8409 9.88731 18.1293 9.81502 18.4179 9.82604H20.1702C20.5068 9.82604 20.9439 9.901 21.2182 10.2659C21.4964 10.6361 21.4255 11.0602 21.3469 11.3076L21.3323 11.3535L21.3113 11.3969C20.6536 12.7561 19.8461 14.0464 18.9024 15.2467C18.9748 15.3216 19.0958 15.4329 19.2711 15.594C19.2864 15.6081 19.3022 15.6226 19.3183 15.6375C19.5348 15.8366 19.8001 16.0836 20.024 16.3358C20.6749 16.9269 21.2182 17.6168 21.6305 18.3783L21.6626 18.4376L21.6823 18.5021C21.7928 18.8637 21.7981 19.3224 21.4662 19.6798C21.1696 19.9993 20.749 20.0709 20.4227 20.0709H18.6051C18.0415 20.0709 17.6768 19.8063 17.3497 19.4933C17.2328 19.3815 17.1026 19.2455 16.964 19.1008C16.9223 19.0572 16.8799 19.0128 16.8368 18.9681C16.6446 18.7687 16.417 18.5372 16.1306 18.269C15.5267 17.7261 15.2107 17.5133 15.0373 17.4304V18.7554C15.0373 18.8858 15.0279 19.0755 14.9521 19.2707C14.8679 19.4875 14.7192 19.6688 14.5105 19.7995C14.1557 20.0216 13.6608 20.0709 13.102 20.0709H13.0805L13.0591 20.0695C11.8702 19.9936 10.7152 19.6552 9.68858 19.0796C8.66815 18.5075 7.80172 17.7163 7.16241 16.7668C6.04235 15.2962 5.32208 13.9954 4.87912 12.9921C4.657 12.4891 4.50328 12.0578 4.4039 11.7148C4.31035 11.3918 4.25 11.097 4.25 10.8865C4.25 10.6843 4.29228 10.3523 4.56665 10.0847C4.83395 9.82387 5.1928 9.75047 5.52895 9.75047H7.296C7.65278 9.75047 7.98433 9.84887 8.25421 10.096C8.49333 10.315 8.62217 10.5988 8.70904 10.8172L8.7115 10.8233C9.14929 11.9565 9.70743 13.0145 10.2203 13.7787C10.3781 14.0139 10.5269 14.2143 10.6619 14.3772V12.4361C10.6376 12.039 10.5239 11.8668 10.433 11.7502C10.4031 11.7117 10.3727 11.6764 10.3328 11.6299L10.3293 11.6257C10.2937 11.5843 10.2431 11.5254 10.1967 11.4624C10.0951 11.3246 9.96515 11.1043 9.96515 10.8014V10.7847L9.96598 10.768C9.97328 10.6211 10.0115 10.4784 10.0768 10.3486C10.142 10.2188 10.2324 10.1055 10.3405 10.0135C10.4486 9.92167 10.5725 9.85261 10.7044 9.80832C10.8303 9.76605 10.9625 9.74666 11.0944 9.75047ZM11.6192 11.0967C11.8111 11.3918 11.9753 11.7904 12.0071 12.3806L12.0081 12.3987V14.8445C12.0081 15.1073 11.9927 15.4369 11.8382 15.702C11.7423 15.8664 11.6001 15.9971 11.4189 16.0739C11.2578 16.1423 11.1058 16.1506 11.0119 16.1506C10.7567 16.1506 10.5417 16.0475 10.3951 15.9567C10.2386 15.8599 10.09 15.733 9.95274 15.5971C9.67737 15.3242 9.38738 14.9535 9.10238 14.5288C8.53025 13.6761 7.92778 12.5296 7.45699 11.3118C7.42292 11.2264 7.39617 11.1701 7.37383 11.1316C7.36546 11.1171 7.35874 11.107 7.35385 11.1002C7.34238 11.0985 7.32371 11.0967 7.296 11.0967H5.63331C5.6489 11.1651 5.66978 11.2464 5.69694 11.3402C5.77774 11.6191 5.9099 11.9938 6.11062 12.4484C6.51168 13.3567 7.18115 14.5721 8.24512 15.9666L8.25781 15.9832L8.26945 16.0006C8.78834 16.7763 9.49918 17.4301 10.3469 17.9054C11.1886 18.3773 12.1399 18.6587 13.1235 18.7246C13.3724 18.7239 13.5443 18.7101 13.6614 18.6906C13.672 18.6888 13.6819 18.6871 13.6911 18.6853V17.2723C13.6911 17.045 13.7027 16.6612 13.9562 16.3699C14.2424 16.0411 14.6466 16.0324 14.8287 16.0324C15.4622 16.0324 15.9871 16.3292 17.0358 17.2726L17.0407 17.2769L17.0455 17.2814C17.3576 17.5734 17.6044 17.8246 17.8062 18.0341C17.8594 18.0893 17.9081 18.1402 17.9533 18.1873C18.0853 18.3251 18.1867 18.431 18.2803 18.5206C18.4954 18.7264 18.5471 18.7255 18.5961 18.7248C18.5991 18.7247 18.6021 18.7247 18.6051 18.7247H20.2766C19.9573 18.2051 19.5596 17.7285 19.0942 17.31L19.0638 17.2827L19.037 17.252C18.8625 17.052 18.6359 16.8389 18.4069 16.6282C18.3831 16.6063 18.3586 16.5839 18.3336 16.561C18.1473 16.3903 17.9356 16.1963 17.8126 16.0467C17.6455 15.8435 17.5083 15.5788 17.5118 15.2543C17.515 14.9444 17.6463 14.6888 17.7811 14.4962L17.7924 14.4801L17.8047 14.4646C18.6216 13.4323 19.3298 12.3297 19.9198 11.1722H18.3859L18.3686 11.1714C18.3363 11.1697 18.3074 11.1781 18.2868 11.1905C18.2667 11.2026 18.2595 11.2152 18.2574 11.2202L18.2537 11.2291L18.2497 11.2379C17.6746 12.5177 16.9074 13.7123 15.9724 14.7859L15.9498 14.8119L15.9247 14.8354C15.5449 15.1907 15.175 15.5271 14.6368 15.5271C14.5277 15.5271 14.3722 15.5141 14.2121 15.4395C14.0331 15.3562 13.9011 15.2208 13.8177 15.0622C13.744 14.9221 13.718 14.7826 13.706 14.6846C13.6936 14.5828 13.6911 14.4772 13.6911 14.3817V11.0967H11.6192Z" fill="#F4F4F4"/>
<path d="M12.0071 12.3806C11.9753 11.7904 11.8111 11.3918 11.6192 11.0967H13.6911V14.3817C13.6911 14.4772 13.6936 14.5828 13.706 14.6846C13.718 14.7826 13.744 14.9221 13.8177 15.0622C13.9011 15.2208 14.0331 15.3562 14.2121 15.4395C14.3722 15.5141 14.5277 15.5271 14.6368 15.5271C15.175 15.5271 15.5449 15.1907 15.9247 14.8354L15.9498 14.8119L15.9724 14.7859C16.9074 13.7123 17.6746 12.5177 18.2497 11.2379L18.2537 11.2291L18.2574 11.2202C18.2595 11.2152 18.2667 11.2026 18.2868 11.1905C18.3074 11.1781 18.3363 11.1697 18.3686 11.1714L18.3859 11.1722H19.9198C19.3298 12.3297 18.6216 13.4323 17.8047 14.4646L17.7924 14.4801L17.7811 14.4962C17.6463 14.6888 17.515 14.9444 17.5118 15.2543C17.5083 15.5788 17.6455 15.8435 17.8126 16.0467C17.9356 16.1963 18.1473 16.3903 18.3336 16.561L18.4069 16.6282C18.6359 16.8389 18.8625 17.052 19.037 17.252L19.0638 17.2827L19.0942 17.31C19.5596 17.7285 19.9573 18.2051 20.2766 18.7247H18.6051L18.5961 18.7248C18.5471 18.7255 18.4954 18.7264 18.2803 18.5206C18.1867 18.431 18.0853 18.3251 17.9533 18.1873C17.9081 18.1402 17.8594 18.0893 17.8062 18.0341C17.6044 17.8246 17.3576 17.5734 17.0455 17.2814L17.0407 17.2769L17.0358 17.2726C15.9871 16.3292 15.4622 16.0324 14.8287 16.0324C14.6466 16.0324 14.2424 16.0411 13.9562 16.3699C13.7027 16.6612 13.6911 17.045 13.6911 17.2723V18.6853C13.6819 18.6871 13.672 18.6888 13.6614 18.6906C13.5443 18.7101 13.3724 18.7239 13.1235 18.7246C12.1399 18.6587 11.1886 18.3773 10.3469 17.9054C9.49918 17.4301 8.78834 16.7763 8.26945 16.0006L8.25781 15.9832L8.24512 15.9666C7.18115 14.5721 6.51168 13.3567 6.11062 12.4484C5.9099 11.9938 5.77774 11.6191 5.69694 11.3402C5.66978 11.2464 5.6489 11.1651 5.63331 11.0967H7.296C7.32371 11.0967 7.34238 11.0985 7.35385 11.1002C7.35874 11.107 7.36546 11.1171 7.37383 11.1316C7.39617 11.1701 7.42292 11.2264 7.45699 11.3118C7.92778 12.5296 8.53025 13.6761 9.10238 14.5288C9.38738 14.9535 9.67737 15.3242 9.95274 15.5971C10.09 15.733 10.2386 15.8599 10.3951 15.9567C10.5417 16.0475 10.7567 16.1506 11.0119 16.1506C11.1058 16.1506 11.2578 16.1423 11.4189 16.0739C11.6001 15.9971 11.7423 15.8664 11.8382 15.702C11.9927 15.4369 12.0081 15.1073 12.0081 14.8445V12.3987L12.0071 12.3806Z" fill="#F4F4F4"/>
</g>
<defs>
<clipPath id="clip0_4203_8890">
<rect width="28" height="28" fill="white" transform="translate(0 0.5)"/>
</clipPath>
</defs>
</svg>
