<svg width="28" height="29" viewBox="0 0 28 29" fill="none" xmlns="http://www.w3.org/2000/svg">
<g clip-path="url(#clip0_4203_8885)">
<rect width="28" height="28" rx="10" fill="#E21A20" fill-opacity="0.8"/>
<path fill-rule="evenodd" clip-rule="evenodd" d="M21.5746 12.2953C21.4674 10.8187 21.1984 9.29405 19.3106 9.18249C15.7733 8.98084 12.2275 8.98084 8.69025 9.18249C6.80244 9.29187 6.53337 10.8187 6.42619 12.2953C6.31627 13.7632 6.31627 15.2374 6.42619 16.7053C6.53337 18.1819 6.80244 19.7066 8.69025 19.8181C12.2275 20.0198 15.7733 20.0198 19.3106 19.8181C21.1984 19.7087 21.4674 18.1819 21.5746 16.7053C21.6845 15.2374 21.6845 13.7632 21.5746 12.2953ZM12.4702 16.4691V12.0941L16.6265 14.2816L12.4702 16.4691Z" fill="white"/>
</g>
<defs>
<clipPath id="clip0_4203_8885">
<rect width="28" height="28" fill="white" transform="translate(0 0.5)"/>
</clipPath>
</defs>
</svg>
