<svg width="24" height="24" viewBox="0 0 24 24" fill="none" xmlns="http://www.w3.org/2000/svg">
<path d="M10.9492 12.6999L9.49922 11.2749C9.31589 11.0915 9.08672 10.9999 8.81172 10.9999C8.53672 10.9999 8.29922 11.0999 8.09922 11.2999C7.91589 11.4832 7.82422 11.7165 7.82422 11.9999C7.82422 12.2832 7.91589 12.5165 8.09922 12.6999L10.2492 14.8499C10.4492 15.0499 10.6826 15.1499 10.9492 15.1499C11.2159 15.1499 11.4492 15.0499 11.6492 14.8499L15.8992 10.5999C16.0992 10.3999 16.1951 10.1665 16.1867 9.89987C16.1784 9.63321 16.0826 9.39987 15.8992 9.19987C15.6992 8.99987 15.4617 8.89571 15.1867 8.88737C14.9117 8.87904 14.6742 8.97487 14.4742 9.17487L10.9492 12.6999ZM8.14922 21.7499L6.69922 19.2999L3.94922 18.6999C3.69922 18.6499 3.49922 18.5207 3.34922 18.3124C3.19922 18.104 3.14089 17.8749 3.17422 17.6249L3.44922 14.7999L1.57422 12.6499C1.40755 12.4665 1.32422 12.2499 1.32422 11.9999C1.32422 11.7499 1.40755 11.5332 1.57422 11.3499L3.44922 9.19987L3.17422 6.37487C3.14089 6.12487 3.19922 5.89571 3.34922 5.68737C3.49922 5.47904 3.69922 5.34987 3.94922 5.29987L6.69922 4.69987L8.14922 2.24987C8.28255 2.03321 8.46589 1.88737 8.69922 1.81237C8.93255 1.73737 9.16589 1.74987 9.39922 1.84987L11.9992 2.94987L14.5992 1.84987C14.8326 1.74987 15.0659 1.73737 15.2992 1.81237C15.5326 1.88737 15.7159 2.03321 15.8492 2.24987L17.2992 4.69987L20.0492 5.29987C20.2992 5.34987 20.4992 5.47904 20.6492 5.68737C20.7992 5.89571 20.8576 6.12487 20.8242 6.37487L20.5492 9.19987L22.4242 11.3499C22.5909 11.5332 22.6742 11.7499 22.6742 11.9999C22.6742 12.2499 22.5909 12.4665 22.4242 12.6499L20.5492 14.7999L20.8242 17.6249C20.8576 17.8749 20.7992 18.104 20.6492 18.3124C20.4992 18.5207 20.2992 18.6499 20.0492 18.6999L17.2992 19.2999L15.8492 21.7499C15.7159 21.9665 15.5326 22.1124 15.2992 22.1874C15.0659 22.2624 14.8326 22.2499 14.5992 22.1499L11.9992 21.0499L9.39922 22.1499C9.16589 22.2499 8.93255 22.2624 8.69922 22.1874C8.46589 22.1124 8.28255 21.9665 8.14922 21.7499ZM9.44922 19.9499L11.9992 18.8499L14.5992 19.9499L15.9992 17.5499L18.7492 16.8999L18.4992 14.0999L20.3492 11.9999L18.4992 9.84987L18.7492 7.04987L15.9992 6.44987L14.5492 4.04987L11.9992 5.14987L9.39922 4.04987L7.99922 6.44987L5.24922 7.04987L5.49922 9.84987L3.64922 11.9999L5.49922 14.0999L5.24922 16.9499L7.99922 17.5499L9.44922 19.9499Z" fill="#494848"/>
</svg>
