<svg width="34" height="34" viewBox="0 0 34 34" fill="none" xmlns="http://www.w3.org/2000/svg">
<path d="M2.89062 17.0007C2.89062 9.1764 9.23163 2.83398 17.0573 2.83398C24.8801 2.83398 31.224 9.1764 31.224 17.0007C31.224 24.8249 24.8801 31.1673 17.0573 31.1673C9.23163 31.1673 2.89062 24.8249 2.89062 17.0007Z" fill="#FC3F1D"/>
<path d="M18.8685 10.8611H17.5595C15.1597 10.8611 13.8975 12.0766 13.8975 13.8687C13.8975 15.8945 14.7701 16.8437 16.5622 18.0606L18.0426 19.0579L13.7884 25.4145H10.6094L14.4273 19.728C12.2315 18.1541 10.999 16.6255 10.999 14.0401C10.999 10.7988 13.2585 8.58594 17.544 8.58594H21.7982V25.3989H18.8685V10.8611Z" fill="white"/>
</svg>
