<svg width="128" height="17" viewBox="0 0 128 17" fill="none" xmlns="http://www.w3.org/2000/svg">
<path d="M14.6431 7.67741L11.8306 10.1043L12.6875 13.7337C12.7347 13.9307 12.7226 14.1373 12.6525 14.3274C12.5824 14.5175 12.4575 14.6826 12.2937 14.8018C12.1298 14.9209 11.9343 14.9889 11.7319 14.997C11.5294 15.0051 11.3291 14.9531 11.1562 14.8474L7.99996 12.9049L4.84184 14.8474C4.66898 14.9525 4.4689 15.004 4.2668 14.9956C4.06469 14.9872 3.8696 14.9192 3.70609 14.8001C3.54257 14.681 3.41795 14.5162 3.3479 14.3264C3.27786 14.1367 3.26553 13.9304 3.31246 13.7337L4.17246 10.1043L1.35996 7.67741C1.20702 7.54523 1.09641 7.37092 1.04195 7.17626C0.987486 6.98159 0.99158 6.77519 1.05372 6.58283C1.11586 6.39048 1.23329 6.22069 1.39135 6.09468C1.54941 5.96867 1.7411 5.89201 1.94246 5.87429L5.62996 5.57679L7.05246 2.13429C7.12946 1.94667 7.2605 1.78619 7.42894 1.67325C7.59738 1.56031 7.7956 1.5 7.9984 1.5C8.2012 1.5 8.39942 1.56031 8.56785 1.67325C8.73629 1.78619 8.86734 1.94667 8.94433 2.13429L10.3662 5.57679L14.0537 5.87429C14.2555 5.89135 14.4477 5.96758 14.6063 6.09342C14.765 6.21926 14.883 6.38911 14.9455 6.5817C15.008 6.77429 15.0123 6.98105 14.9579 7.17607C14.9034 7.37109 14.7926 7.54571 14.6393 7.67804L14.6431 7.67741Z" fill="#F9CB2D"/>
<path d="M42.6431 7.67741L39.8306 10.1043L40.6875 13.7337C40.7347 13.9307 40.7226 14.1373 40.6525 14.3274C40.5824 14.5175 40.4575 14.6826 40.2937 14.8018C40.1298 14.9209 39.9343 14.9889 39.7319 14.997C39.5294 15.0051 39.3291 14.9531 39.1562 14.8474L36 12.9049L32.8418 14.8474C32.669 14.9525 32.4689 15.004 32.2668 14.9956C32.0647 14.9872 31.8696 14.9192 31.7061 14.8001C31.5426 14.681 31.4179 14.5162 31.3479 14.3264C31.2779 14.1367 31.2655 13.9304 31.3125 13.7337L32.1725 10.1043L29.36 7.67741C29.207 7.54523 29.0964 7.37092 29.042 7.17626C28.9875 6.98159 28.9916 6.77519 29.0537 6.58283C29.1159 6.39048 29.2333 6.22069 29.3914 6.09468C29.5494 5.96867 29.7411 5.89201 29.9425 5.87429L33.63 5.57679L35.0525 2.13429C35.1295 1.94667 35.2605 1.78619 35.4289 1.67325C35.5974 1.56031 35.7956 1.5 35.9984 1.5C36.2012 1.5 36.3994 1.56031 36.5679 1.67325C36.7363 1.78619 36.8673 1.94667 36.9443 2.13429L38.3662 5.57679L42.0537 5.87429C42.2555 5.89135 42.4477 5.96758 42.6063 6.09342C42.765 6.21926 42.883 6.38911 42.9455 6.5817C43.008 6.77429 43.0123 6.98105 42.9579 7.17607C42.9034 7.37109 42.7926 7.54571 42.6393 7.67804L42.6431 7.67741Z" fill="#F9CB2D"/>
<path d="M70.6431 7.67741L67.8306 10.1043L68.6875 13.7337C68.7347 13.9307 68.7226 14.1373 68.6525 14.3274C68.5824 14.5175 68.4575 14.6826 68.2937 14.8018C68.1298 14.9209 67.9343 14.9889 67.7319 14.997C67.5294 15.0051 67.3291 14.9531 67.1562 14.8474L64 12.9049L60.8418 14.8474C60.669 14.9525 60.4689 15.004 60.2668 14.9956C60.0647 14.9872 59.8696 14.9192 59.7061 14.8001C59.5426 14.681 59.4179 14.5162 59.3479 14.3264C59.2779 14.1367 59.2655 13.9304 59.3125 13.7337L60.1725 10.1043L57.36 7.67741C57.207 7.54523 57.0964 7.37092 57.042 7.17626C56.9875 6.98159 56.9916 6.77519 57.0537 6.58283C57.1159 6.39048 57.2333 6.22069 57.3914 6.09468C57.5494 5.96867 57.7411 5.89201 57.9425 5.87429L61.63 5.57679L63.0525 2.13429C63.1295 1.94667 63.2605 1.78619 63.4289 1.67325C63.5974 1.56031 63.7956 1.5 63.9984 1.5C64.2012 1.5 64.3994 1.56031 64.5679 1.67325C64.7363 1.78619 64.8673 1.94667 64.9443 2.13429L66.3662 5.57679L70.0537 5.87429C70.2555 5.89135 70.4477 5.96758 70.6063 6.09342C70.765 6.21926 70.883 6.38911 70.9455 6.5817C71.008 6.77429 71.0123 6.98105 70.9579 7.17607C70.9034 7.37109 70.7926 7.54571 70.6393 7.67804L70.6431 7.67741Z" fill="#F9CB2D"/>
<path d="M98.6431 7.67741L95.8306 10.1043L96.6875 13.7337C96.7347 13.9307 96.7226 14.1373 96.6525 14.3274C96.5824 14.5175 96.4575 14.6826 96.2937 14.8018C96.1298 14.9209 95.9343 14.9889 95.7319 14.997C95.5294 15.0051 95.3291 14.9531 95.1562 14.8474L92 12.9049L88.8418 14.8474C88.669 14.9525 88.4689 15.004 88.2668 14.9956C88.0647 14.9872 87.8696 14.9192 87.7061 14.8001C87.5426 14.681 87.4179 14.5162 87.3479 14.3264C87.2779 14.1367 87.2655 13.9304 87.3125 13.7337L88.1725 10.1043L85.36 7.67741C85.207 7.54523 85.0964 7.37092 85.042 7.17626C84.9875 6.98159 84.9916 6.77519 85.0537 6.58283C85.1159 6.39048 85.2333 6.22069 85.3914 6.09468C85.5494 5.96867 85.7411 5.89201 85.9425 5.87429L89.63 5.57679L91.0525 2.13429C91.1295 1.94667 91.2605 1.78619 91.4289 1.67325C91.5974 1.56031 91.7956 1.5 91.9984 1.5C92.2012 1.5 92.3994 1.56031 92.5679 1.67325C92.7363 1.78619 92.8673 1.94667 92.9443 2.13429L94.3662 5.57679L98.0537 5.87429C98.2555 5.89135 98.4477 5.96758 98.6063 6.09342C98.765 6.21926 98.883 6.38911 98.9455 6.5817C99.008 6.77429 99.0123 6.98105 98.9579 7.17607C98.9034 7.37109 98.7926 7.54571 98.6393 7.67804L98.6431 7.67741Z" fill="#F9CB2D"/>
<path d="M126.643 7.67741L123.831 10.1043L124.687 13.7337C124.735 13.9307 124.723 14.1373 124.652 14.3274C124.582 14.5175 124.458 14.6826 124.294 14.8018C124.13 14.9209 123.934 14.9889 123.732 14.997C123.529 15.0051 123.329 14.9531 123.156 14.8474L120 12.9049L116.842 14.8474C116.669 14.9525 116.469 15.004 116.267 14.9956C116.065 14.9872 115.87 14.9192 115.706 14.8001C115.543 14.681 115.418 14.5162 115.348 14.3264C115.278 14.1367 115.266 13.9304 115.312 13.7337L116.172 10.1043L113.36 7.67741C113.207 7.54523 113.096 7.37092 113.042 7.17626C112.987 6.98159 112.992 6.77519 113.054 6.58283C113.116 6.39048 113.233 6.22069 113.391 6.09468C113.549 5.96867 113.741 5.89201 113.942 5.87429L117.63 5.57679L119.052 2.13429C119.129 1.94667 119.261 1.78619 119.429 1.67325C119.597 1.56031 119.796 1.5 119.998 1.5C120.201 1.5 120.399 1.56031 120.568 1.67325C120.736 1.78619 120.867 1.94667 120.944 2.13429L122.366 5.57679L126.054 5.87429C126.255 5.89135 126.448 5.96758 126.606 6.09342C126.765 6.21926 126.883 6.38911 126.945 6.5817C127.008 6.77429 127.012 6.98105 126.958 7.17607C126.903 7.37109 126.793 7.54571 126.639 7.67804L126.643 7.67741Z" fill="#F9CB2D"/>
</svg>
