<svg width="28" height="29" viewBox="0 0 28 29" fill="none" xmlns="http://www.w3.org/2000/svg">
<path d="M23.9735 13.0463L19.8548 16.6003L21.1097 21.9153C21.1789 22.2038 21.1611 22.5064 21.0584 22.7847C20.9558 23.0631 20.7729 23.3049 20.533 23.4794C20.293 23.6539 20.0067 23.7534 19.7103 23.7653C19.4138 23.7772 19.1204 23.701 18.8673 23.5463L14.2452 20.7016L9.62035 23.5463C9.36722 23.7001 9.07422 23.7756 8.77825 23.7633C8.48229 23.7509 8.19659 23.6513 7.95714 23.4769C7.71768 23.3026 7.53518 23.0612 7.4326 22.7833C7.33003 22.5054 7.31197 22.2034 7.3807 21.9153L8.64011 16.6003L4.52141 13.0463C4.29745 12.8528 4.13547 12.5975 4.05571 12.3124C3.97595 12.0274 3.98195 11.7251 4.07295 11.4434C4.16395 11.1617 4.33592 10.9131 4.56739 10.7286C4.79885 10.544 5.07956 10.4318 5.37444 10.4058L10.7745 9.97014L12.8576 4.92887C12.9704 4.65412 13.1623 4.41911 13.409 4.25371C13.6556 4.08831 13.9459 4 14.2429 4C14.5399 4 14.8302 4.08831 15.0768 4.25371C15.3235 4.41911 15.5154 4.65412 15.6281 4.92887L17.7104 9.97014L23.1104 10.4058C23.4059 10.4308 23.6874 10.5424 23.9197 10.7267C24.152 10.911 24.3248 11.1597 24.4164 11.4418C24.5079 11.7238 24.5142 12.0266 24.4345 12.3122C24.3547 12.5978 24.1925 12.8535 23.968 13.0473L23.9735 13.0463Z" fill="#EFE145"/>
</svg>
