<svg width="40" height="40" viewBox="0 0 40 40" fill="none" xmlns="http://www.w3.org/2000/svg">
<path d="M29.9572 16.8614L27.9572 16.028L30.3406 14.7614C33.4072 13.1614 34.5572 9.37803 32.9406 6.32803C31.3239 3.27803 27.5406 2.11136 24.4906 3.72803L10.3406 11.228C8.19058 12.3614 6.89058 14.628 7.00725 17.0447C7.12391 19.4114 8.55725 21.4947 10.7072 22.4614C10.7572 22.478 12.7072 23.2947 12.7072 23.2947L10.3406 24.5447C7.29058 26.1614 6.12391 29.9447 7.74058 32.9947C9.35725 36.0447 13.1406 37.2114 16.1906 35.5947L30.3572 28.0947C32.5072 26.9614 33.7906 24.6947 33.6739 22.278C33.5572 19.9114 32.1072 17.8114 29.9572 16.8614ZM17.0072 24.078V15.2447L25.3406 19.6614L17.0072 24.078Z" fill="#F1121B"/>
</svg>
