<svg width="40" height="40" viewBox="0 0 40 40" fill="none" xmlns="http://www.w3.org/2000/svg">
<path fill-rule="evenodd" clip-rule="evenodd" d="M26.3683 31.0811C28.463 31.0811 30.1754 29.9487 30.1754 28.5585C30.1754 27.2283 28.4443 25.4514 27.5607 24.3652H25.2406L26.7503 26.0453C26.6215 26.0409 26.497 26.0359 26.3681 26.0359C24.2691 26.0359 22.5614 26.8368 22.5614 28.5585C22.5618 29.9487 24.2693 31.0811 26.3683 31.0811ZM15.9609 26.1785H17.9081V28.8851C17.9081 30.266 20.1681 30.266 20.1681 28.8851V26.1785H22.0694V29.0696C22.0694 31.9141 15.9609 31.8914 15.9609 29.0696V26.1785ZM30.6265 26.1785H32.7162V31.0626H30.6265V26.1785Z" fill="black"/>
<path fill-rule="evenodd" clip-rule="evenodd" d="M9.29673 24.5342H11.8608L16.372 31.0614H14.015L13.3753 30.0533H9.08506L8.47289 31.0614H6.2174L9.97365 25.3582L9.29673 24.5342ZM31.8612 8.80529C35.4193 8.85592 38.2828 11.7973 38.2367 15.3555C38.1861 18.9138 35.2448 21.7721 31.6867 21.7263C30.2984 21.7083 28.9532 21.2417 27.852 20.3961C26.7383 21.2521 25.3388 21.7582 23.8289 21.7356C22.4396 21.719 21.0935 21.2503 19.9944 20.4005C18.8805 21.2612 17.4812 21.7676 15.9713 21.7445C14.5873 21.7271 13.2458 21.2639 12.1459 20.4237C10.9986 21.3049 9.58777 21.7735 8.14128 21.7539C4.58341 21.7033 1.7201 18.7665 1.76617 15.2084C1.81681 11.6501 4.75814 8.78703 8.31642 8.83289C9.69861 8.85261 11.0379 9.31577 12.137 10.1541C13.251 9.30706 14.6411 8.80529 16.1419 8.82832C17.5325 8.84485 18.88 9.31342 19.9809 10.1633C21.13 9.27043 22.5492 8.79623 24.0042 8.81898C25.3927 8.83561 26.7382 9.30246 27.8385 10.1494C28.9888 9.25925 30.4069 8.78543 31.8612 8.80529Z" fill="black"/>
<path fill-rule="evenodd" clip-rule="evenodd" d="M27.9254 11.2274L27.8748 10.4127C28.92 9.5696 30.2105 9.08829 31.5526 9.04102C31.6032 9.11468 31.8153 9.54258 31.852 9.54258C34.9222 9.68535 37.3755 11.5266 37.5 15.3472C37.5965 18.5004 34.8486 21.0321 31.6952 20.9908C30.2626 20.9697 28.8898 20.413 27.8472 19.4303C26.7378 20.4291 25.3935 21.0228 23.838 20.9998C22.3509 20.9815 21.0025 20.3922 19.9989 19.444C18.9265 20.4476 17.4627 21.0321 15.9804 21.0091C14.5535 20.9908 13.177 20.4291 12.1459 19.467C11.9849 19.6189 11.7914 19.7754 11.5752 19.9321C10.5816 20.6559 9.37968 21.037 8.15057 21.0182C5.81207 20.9859 3.80975 19.5451 2.95374 17.5154C2.75409 17.4988 2.55667 17.4617 2.3646 17.4047C2.11295 16.702 1.9883 15.96 1.99647 15.2136C2.04254 11.8809 4.7168 9.18337 8.00801 9.06841C8.10015 9.20184 8.19685 9.36765 8.27965 9.57018H8.30725C9.77852 9.59324 11.1845 10.1816 12.2337 11.2133L12.1876 10.4079C13.2003 9.60691 14.4661 9.1097 15.8378 9.06363C15.8884 9.1373 16.0219 9.31224 16.1323 9.56541C17.5731 9.58388 19.0414 10.2189 20.0633 11.195L20.0172 10.4262C21.0611 9.58059 22.3525 9.09896 23.6952 9.0545C23.7871 9.18814 23.8793 9.35374 23.9668 9.55628H23.9944C25.4441 9.57495 26.8899 10.2376 27.9254 11.2274Z" fill="#F2F2F2"/>
<path fill-rule="evenodd" clip-rule="evenodd" d="M8.30224 9.893C5.32397 9.85626 2.86594 12.2498 2.82464 15.2235C2.79247 17.8197 4.60596 20.0152 7.04096 20.5633C7.12375 20.457 7.21589 20.3421 7.30803 20.2269C7.58912 20.2781 7.87398 20.3059 8.15967 20.3099C9.29209 20.3236 10.3369 19.9646 11.2344 19.2972L11.9848 19.3109C11.4729 18.7907 11.0637 18.1785 10.7787 17.5066C10.5807 17.4916 10.3848 17.4561 10.1942 17.4007C9.93807 16.6975 9.81322 15.9533 9.82582 15.205C9.84186 13.8346 10.3131 12.5084 11.1653 11.435C11.483 11.4259 11.8051 11.4214 11.9892 11.4214C11.0007 10.4594 9.68139 9.91247 8.30224 9.893Z" fill="black"/>
<path fill-rule="evenodd" clip-rule="evenodd" d="M10.9216 19.205C10.04 18.06 9.57264 16.6499 9.59603 15.2049C9.6145 13.7641 10.1069 12.4431 10.9216 11.3752C10.1479 10.8417 9.23303 10.5501 8.29324 10.5375C5.67397 10.5051 3.50605 12.6135 3.46911 15.2325C3.43695 17.8564 5.54511 20.0152 8.16417 20.0521C9.35676 20.0658 10.3416 19.5871 10.9216 19.205Z" fill="#F2F2F2"/>
<path fill-rule="evenodd" clip-rule="evenodd" d="M12.1498 11.582C11.2199 12.5683 10.6871 13.8633 10.6538 15.2183C10.6262 16.1713 10.9945 17.6811 11.7217 18.5234C11.8597 18.6845 11.9701 18.8642 12.1589 19.0298L12.1772 18.3437C12.8723 17.5153 13.2313 16.4472 13.245 15.3655C13.2496 14.7992 13.1668 14.2561 13.001 13.7497C13.1023 13.4827 13.2909 13.3401 13.2909 13.3401C13.1166 12.7144 12.6103 12.056 12.1498 11.582ZM19.9891 11.582C19.0586 12.5623 18.5326 13.8577 18.5162 15.2092C18.4977 16.6776 19.0731 18.0217 20.0167 19.0113L20.0352 18.3715C20.6152 17.4371 21.0526 16.5348 21.0663 15.3565C21.0747 14.8082 20.9922 14.2622 20.8223 13.7408C20.9236 13.4737 21.117 13.3312 21.117 13.3312C20.9649 12.7972 20.4218 12.0147 19.9891 11.582Z" fill="black"/>
<path fill-rule="evenodd" clip-rule="evenodd" d="M12.1445 17.994C11.5788 17.1835 11.2825 16.2156 11.2974 15.2274C11.3087 14.2838 11.6021 13.3652 12.1399 12.5898C12.683 13.377 13.0007 14.3344 12.9868 15.3608C12.9749 16.3029 12.6816 17.2199 12.1445 17.994Z" fill="#F2F2F2"/>
<path fill-rule="evenodd" clip-rule="evenodd" d="M26.8777 11.417L27.6878 11.4215C26.6795 10.4732 25.4047 9.89793 23.987 9.87946C22.5803 9.85922 21.2218 10.3914 20.2031 11.3618C21.2249 12.4253 21.796 13.8798 21.7728 15.3664C21.7541 16.7842 21.188 18.1928 20.2262 19.2191C20.9256 19.8779 21.7887 20.3372 22.7257 20.5493C22.8083 20.4391 22.9004 20.324 22.9924 20.2088C23.2688 20.2594 23.5541 20.287 23.844 20.2914C25.0688 20.3101 26.0995 19.8635 26.9742 19.2743L27.6648 19.2559C27.1694 18.7429 26.7717 18.1439 26.4911 17.4883C26.293 17.4717 26.0971 17.4346 25.9067 17.3776C25.6526 16.6755 25.5278 15.9331 25.5384 15.1865C25.5564 13.7646 26.0582 12.4572 26.8777 11.417Z" fill="black"/>
<path fill-rule="evenodd" clip-rule="evenodd" d="M23.8483 20.0323C22.863 20.0184 21.9518 19.71 21.1968 19.1852C22.0026 18.1219 22.4901 16.8054 22.5088 15.3738C22.5318 13.8778 22.0346 12.4922 21.1875 11.3828C22.0029 10.8081 22.9796 10.5067 23.9771 10.522C24.9225 10.535 25.8426 10.8299 26.6192 11.3691C25.8135 12.4324 25.326 13.7489 25.3073 15.1806C25.2875 16.6228 25.7528 18.03 26.6286 19.1761C26.0486 19.5581 25.0539 20.0508 23.8483 20.0323Z" fill="#F2F2F2"/>
<path fill-rule="evenodd" clip-rule="evenodd" d="M36.8357 13.3133C36.8357 13.3133 36.6423 13.4561 36.5414 13.723C36.7114 14.2445 36.7953 14.7902 36.7898 15.3387C36.7485 18.1005 34.4654 20.3193 31.7032 20.2826C31.4172 20.2791 31.1322 20.2497 30.8515 20.195C30.7596 20.3145 30.6675 20.4297 30.5844 20.5355C29.6272 20.3195 28.7712 19.8499 28.0806 19.2099C29.0654 18.2203 29.6228 16.738 29.6411 15.3572C29.6598 13.8749 29.0841 12.4158 28.0625 11.3432C29.0519 10.4135 30.3869 9.8472 31.8459 9.86567C34.2442 9.86567 36.4076 11.7898 36.8357 13.3133Z" fill="black"/>
<path fill-rule="evenodd" clip-rule="evenodd" d="M28.9777 13.3221C28.9777 13.3221 28.7889 13.4649 28.6831 13.7317C28.8532 14.2426 28.936 14.7859 28.9315 15.3474C28.9132 16.5903 28.5955 17.428 27.9053 18.3718L27.896 19.03C26.9337 18.0356 26.3493 16.6824 26.3676 15.1955C26.3863 13.7917 26.943 12.5211 27.836 11.5684C28.2963 12.0378 28.807 12.7051 28.9777 13.3221Z" fill="black"/>
<path fill-rule="evenodd" clip-rule="evenodd" d="M31.8378 10.5083C34.4568 10.5452 36.5648 12.7133 36.5328 15.3324C36.4959 17.9517 34.328 20.055 31.7089 20.0231C30.7617 20.0117 29.8396 19.7167 29.0618 19.176C29.872 18.1173 30.3555 16.7962 30.3783 15.3646C30.397 13.8686 29.8996 12.4784 29.0525 11.369C29.867 10.7958 30.8418 10.4945 31.8378 10.5083ZM27.8468 17.9562C27.2901 17.1474 26.9988 16.1853 27.0134 15.2035C27.0264 14.2716 27.313 13.364 27.8375 12.5936C28.3762 13.3761 28.6891 14.3243 28.6752 15.3417C28.6633 16.2759 28.3751 17.1856 27.8468 17.9562ZM19.9892 17.9608C19.4366 17.1536 19.1472 16.1953 19.1606 15.2172C19.1737 14.2853 19.4602 13.3778 19.9846 12.6073C20.5338 13.4159 20.8214 14.3735 20.8087 15.3509C20.7971 16.2823 20.5121 17.1899 19.9892 17.9608Z" fill="#F2F2F2"/>
<path fill-rule="evenodd" clip-rule="evenodd" d="M16.1271 9.88716C14.6727 9.86869 13.3514 10.4302 12.3711 11.3601C13.3881 12.4465 13.9729 13.8136 13.9544 15.3741C13.936 16.8149 13.356 18.2096 12.3711 19.2407C13.0569 19.8851 13.9499 20.3499 14.8704 20.557C14.9532 20.4468 15.0408 20.3317 15.1375 20.2165C15.4186 20.2676 15.7035 20.2952 15.9891 20.2991C17.0018 20.3128 18.3183 19.9724 19.0917 19.2727L19.8191 19.2681C19.3201 18.7553 18.9205 18.1544 18.6406 17.496C18.4426 17.4808 18.2467 17.4454 18.056 17.3901C17.8021 16.6864 17.6773 15.9425 17.6879 15.1944C17.7061 13.7721 18.2079 12.4647 19.0319 11.4244L19.8054 11.4062C18.7786 10.458 17.5679 9.90563 16.1271 9.88716Z" fill="black"/>
<path fill-rule="evenodd" clip-rule="evenodd" d="M15.9945 20.0418C15.0186 20.0281 14.1165 19.7288 13.3661 19.2086C14.2097 18.1102 14.6748 16.7682 14.6917 15.3834C14.7105 13.9349 14.2402 12.5223 13.3568 11.3742C14.1672 10.8126 15.1327 10.5181 16.1186 10.5317C17.0677 10.544 17.9913 10.8406 18.77 11.3833C17.9645 12.4467 17.4766 13.7631 17.4581 15.1948C17.4395 16.6332 17.903 18.0365 18.7746 19.181C18.1994 19.5678 17.2004 20.0604 15.9945 20.0418ZM26.3697 29.8095C27.3687 29.8095 28.1834 29.2252 28.1834 28.507C28.1834 27.7887 27.3687 27.2044 26.3697 27.2044C25.3711 27.2044 24.5514 27.7887 24.5514 28.507C24.5514 29.2252 25.3711 29.8095 26.3697 29.8095ZM12.5329 28.7234L11.1841 26.5874L9.89062 28.7234H12.5329Z" fill="white"/>
</svg>
