<svg width="30" height="24" viewBox="0 0 30 24" fill="none" xmlns="http://www.w3.org/2000/svg">
<g clip-path="url(#clip0_5829_2285)">
<path d="M15.0643 19.1404C19.0133 19.1404 22.2146 15.9391 22.2146 11.9901C22.2146 8.04114 19.0133 4.83984 15.0643 4.83984C11.1154 4.83984 7.91406 8.04114 7.91406 11.9901C7.91406 15.9391 11.1154 19.1404 15.0643 19.1404Z" stroke="#E2001A" stroke-width="0.0511465"/>
<path d="M15.0195 22.8476C21.0817 22.8476 25.996 17.9332 25.996 11.8711C25.996 5.80889 21.0817 0.894531 15.0195 0.894531C8.95733 0.894531 4.04297 5.80889 4.04297 11.8711C4.04297 17.9332 8.95733 22.8476 15.0195 22.8476Z" stroke="#E2001A" stroke-width="0.0511465"/>
<path d="M15.0628 19.9831C19.477 19.9831 23.0554 16.4047 23.0554 11.9906C23.0554 7.57642 19.477 3.99805 15.0628 3.99805C10.6487 3.99805 7.07031 7.57642 7.07031 11.9906C7.07031 16.4047 10.6487 19.9831 15.0628 19.9831Z" stroke="#E2001A" stroke-width="0.0511465"/>
<path d="M14.9857 23.6374C21.4003 23.6374 26.6003 18.4374 26.6003 12.0228C26.6003 5.60824 21.4003 0.408203 14.9857 0.408203C8.57113 0.408203 3.37109 5.60824 3.37109 12.0228C3.37109 18.4374 8.57113 23.6374 14.9857 23.6374Z" fill="black"/>
<path d="M15 0C8.37251 0 3 5.3726 3 12C3 18.6274 8.37251 24 15 24C21.6274 24 26.9999 18.6275 26.9999 12C26.9998 5.3726 21.6273 0 15 0ZM15 23.4128C8.69674 23.4128 3.58708 18.3031 3.58708 12C3.58708 5.69691 8.69674 0.587162 15 0.587162C21.3032 0.587162 26.4128 5.69682 26.4128 12C26.4128 18.3031 21.3031 23.4128 15 23.4128Z" fill="url(#paint0_linear_5829_2285)"/>
<path d="M13.2656 4.06922V1.05469H14.1914L15.0044 3.17731L15.8285 1.06598H16.7317V4.06922H16.1108V2.01436L15.3318 3.96218H14.6656L13.8753 2.00307V4.06922H13.2656ZM24.2327 6.06263L22.6272 6.7957L23.6948 5.29412L23.2209 4.71784L21.5302 5.48054L22.5885 4.06595L22.1066 3.57797L20.352 5.8321L20.9411 6.40846L22.5842 5.72203L21.5979 7.1971L22.0682 7.88132L24.5657 6.61337L24.2327 6.06263Z" fill="white"/>
<path d="M9.5963 4.8779C9.19212 4.57307 8.72084 4.81751 8.72084 4.81751C8.85946 4.38657 8.44047 4.03935 8.44047 4.03935C7.82499 3.57093 7.28039 4.24082 7.28039 4.24082L5.75 6.04364L8.07557 7.97697L9.70702 6.04527C10.2504 5.34084 9.5963 4.8779 9.5963 4.8779ZM6.67047 5.77129C6.67047 5.77129 7.50371 4.791 7.52974 4.7626C7.64545 4.63657 7.83686 4.59975 7.99611 4.71145C8.15528 4.82332 8.20471 5.0275 8.10642 5.16743L7.2096 6.21786L6.67047 5.77129ZM9.14548 5.90845L8.18818 7.02974L7.61263 6.55306C7.61263 6.55306 8.50218 5.50647 8.52992 5.47628C8.65341 5.34174 8.85783 5.30238 9.02772 5.42169C9.19777 5.54109 9.25047 5.75902 9.14548 5.90845Z" fill="#262626"/>
<path d="M9.48684 4.83103C9.08266 4.5262 8.61138 4.77064 8.61138 4.77064C8.75001 4.3397 8.3311 3.99247 8.3311 3.99247C7.71562 3.52405 7.17101 4.19395 7.17101 4.19395L5.64062 5.99676L7.9662 7.9301L9.59765 5.9984C10.141 5.29397 9.48684 4.83103 9.48684 4.83103ZM6.5611 5.72442C6.5611 5.72442 7.39434 4.74412 7.42036 4.71572C7.53599 4.5897 7.7274 4.55287 7.88665 4.66458C8.0459 4.77645 8.09533 4.98062 7.99705 5.12056L7.10022 6.17099L6.5611 5.72442ZM9.0361 5.86157L8.07872 6.98287L7.50318 6.50618C7.50318 6.50618 8.39272 5.4596 8.42046 5.4294C8.54403 5.29487 8.74837 5.25551 8.91834 5.37482C9.08831 5.49422 9.14101 5.71222 9.0361 5.86157Z" fill="white"/>
<path d="M15.1004 19.4665C19.2484 19.4665 22.6111 16.1039 22.6111 11.9559C22.6111 7.80792 19.2484 4.44531 15.1004 4.44531C10.9525 4.44531 7.58984 7.80792 7.58984 11.9559C7.58984 16.1039 10.9525 19.4665 15.1004 19.4665Z" fill="url(#paint1_linear_5829_2285)"/>
<path d="M14.8573 18.9897C11.1504 18.9897 7.99732 15.8305 8.03153 12.1074H14.8478L14.8573 18.9897Z" fill="white" stroke="#999999" stroke-width="0.201108"/>
<path d="M15.2578 18.9897C18.9647 18.9897 22.1235 15.8411 22.1235 12.1074H15.2674L15.2578 18.9897Z" fill="url(#paint2_linear_5829_2285)" stroke="#424F51" stroke-width="0.201108"/>
<path d="M22.2073 12.1915H15.3512L15.3418 18.693L15.3402 19.0735H15.1797L15.1897 12.0312H22.2071L22.2073 12.1915Z" fill="#647180"/>
<path d="M15.2578 4.9707C18.9647 4.9707 21.9077 8.10193 22.122 11.717L15.2673 11.7121L15.2578 4.9707Z" fill="url(#paint3_linear_5829_2285)" stroke="#A6A6A6" stroke-width="0.199881"/>
<path d="M14.8538 4.9707C11.1469 4.9707 8.03125 8.0246 8.03125 11.7121H14.8442L14.8538 4.9707Z" fill="url(#paint4_linear_5829_2285)" stroke="#A1BBD1" stroke-width="0.199881"/>
<path d="M14.8562 4.88477H14.9363V5.03894L14.7757 5.04434C12.9756 5.06611 11.3215 5.81596 10.1113 7.00853C8.90101 8.2016 8.13635 9.836 8.11426 11.6261H8.11409V11.7854H7.95312V11.7057C7.95411 7.97287 11.1041 4.88542 14.8562 4.88477Z" fill="#BBD8EA"/>
<path d="M15.3289 11.6303V4.89275C15.3019 4.89243 15.2755 4.89062 15.2483 4.89062H15.168L15.1681 4.97033L15.1778 11.7918L22.207 11.7984L22.2019 11.7148C22.2004 11.6924 22.1978 11.6703 22.1962 11.6479H21.1445L15.338 11.6314L15.3289 11.6303Z" fill="#4D4D4D"/>
<path d="M15.03 23.4037C21.3331 23.4037 26.4428 18.294 26.4428 11.9909C26.4428 5.68781 21.3331 0.578125 15.03 0.578125C8.72687 0.578125 3.61719 5.68781 3.61719 11.9909C3.61719 18.294 8.72687 23.4037 15.03 23.4037Z" stroke="#262626" stroke-width="0.112522"/>
<path d="M9.84545 6.79093C8.51024 8.1263 7.68486 9.96971 7.68486 12.0073C7.68486 14.0447 8.51024 15.8882 9.84545 17.2235C11.181 18.5588 13.0242 19.3843 15.0618 19.3843C17.0993 19.3843 18.9428 18.5588 20.2782 17.2235C21.6133 15.8882 22.4389 14.0447 22.4389 12.0073C22.4389 9.96971 21.6133 8.1263 20.2782 6.79093C18.9428 5.45563 17.0993 4.63017 15.0618 4.63017C13.0242 4.63025 11.181 5.45563 9.84545 6.79093ZM7.39844 12.0074C7.3986 7.77482 10.8294 4.34391 15.0619 4.34375C19.2945 4.34391 22.7254 7.77482 22.7255 12.0074C22.7253 16.2399 19.2944 19.6707 15.0619 19.6709C10.8293 19.6706 7.39852 16.2398 7.39844 12.0074Z" fill="url(#paint5_linear_5829_2285)"/>
</g>
<defs>
<linearGradient id="paint0_linear_5829_2285" x1="5.16935" y1="5.11654" x2="24.8306" y2="18.8835" gradientUnits="userSpaceOnUse">
<stop stop-color="#C7D3DA"/>
<stop offset="1" stop-color="#595756"/>
</linearGradient>
<linearGradient id="paint1_linear_5829_2285" x1="11.3446" y1="5.4504" x2="18.8564" y2="18.4613" gradientUnits="userSpaceOnUse">
<stop offset="0.033" stop-color="#8C8C8C"/>
<stop offset="0.092" stop-color="#646464"/>
<stop offset="0.165" stop-color="#393939"/>
<stop offset="0.23" stop-color="#1A1A1A"/>
<stop offset="0.286" stop-color="#070707"/>
<stop offset="0.324"/>
</linearGradient>
<linearGradient id="paint2_linear_5829_2285" x1="15.2585" y1="12.1163" x2="20.0857" y2="16.9437" gradientUnits="userSpaceOnUse">
<stop offset="0.379" stop-color="#4EB4E2"/>
<stop offset="0.984" stop-color="#5E8BA9"/>
</linearGradient>
<linearGradient id="paint3_linear_5829_2285" x1="14.0174" y1="7.1191" x2="22.0867" y2="11.7779" gradientUnits="userSpaceOnUse">
<stop offset="0.214" stop-color="white"/>
<stop offset="0.879" stop-color="#B3B3B3"/>
</linearGradient>
<linearGradient id="paint4_linear_5829_2285" x1="9.58504" y1="7.26902" x2="15.4533" y2="10.6571" gradientUnits="userSpaceOnUse">
<stop offset="0.308" stop-color="#5EB4E1"/>
<stop offset="0.615" stop-color="#34A7DB"/>
</linearGradient>
<linearGradient id="paint5_linear_5829_2285" x1="21.6997" y1="15.8397" x2="8.42407" y2="8.17491" gradientUnits="userSpaceOnUse">
<stop stop-color="#A5ABAF"/>
<stop offset="1" stop-color="#94999A"/>
</linearGradient>
<clipPath id="clip0_5829_2285">
<rect width="24" height="24" fill="white" transform="translate(3)"/>
</clipPath>
</defs>
</svg>
