<svg width="30" height="24" viewBox="0 0 30 24" fill="none" xmlns="http://www.w3.org/2000/svg">
<path d="M25.9194 13.6185C25.2172 13.936 24.3967 13.8464 23.7724 13.3955L22.9484 12.8003L17.4007 8.79563L17.3821 8.78251L17.3655 8.77035L17.3264 8.74315C17.0986 8.58475 16.3945 8.10856 15.8739 7.90056C15.8717 7.90155 15.8697 7.90311 15.8675 7.9044C15.8266 7.88537 15.785 7.86807 15.7427 7.85256C15.7392 7.85128 15.7363 7.84968 15.7328 7.84903C15.6007 7.80002 15.464 7.76442 15.3248 7.74279C15.5366 7.74407 15.7462 7.74695 15.9552 7.75174L16.0938 7.75463C19.5644 7.83911 22.6476 8.32329 24.8065 9.04971H24.8075C26.7963 9.71853 28.0009 10.5938 28.0009 11.5503C28.0009 12.3129 27.236 13.023 25.9188 13.6186L25.9194 13.6185ZM20.2487 15.0349C18.6435 15.2429 16.8678 15.3585 15.0008 15.3585C13.1335 15.3585 11.3581 15.2433 9.75293 15.0352C8.28663 14.7712 8.9929 13.7801 9.37692 13.3546C9.38044 13.3499 9.38453 13.3457 9.38908 13.3421C9.48189 13.2394 9.55388 13.1718 9.56668 13.1603C9.56828 13.1593 9.56858 13.1584 9.56858 13.1584C9.81992 12.9043 10.0745 12.6534 10.3321 12.4057C11.1643 11.6032 12.028 10.8339 12.9211 10.0997C13.1877 9.88053 13.4542 9.66677 13.7198 9.45971L13.7217 9.45843C13.7501 9.43493 13.7792 9.41241 13.8091 9.39091C14.0133 9.23955 14.5317 8.89361 15.0008 8.89489C15.4697 8.89361 15.9881 9.23954 16.1919 9.39091C16.2024 9.39795 16.2114 9.40499 16.22 9.41203L16.2434 9.42963C16.254 9.43731 16.2626 9.44435 16.268 9.44915L16.2773 9.45651L16.2815 9.45971C16.5506 9.66978 16.8171 9.88314 17.0809 10.0997C17.9736 10.834 18.8369 11.6033 19.6689 12.4057C19.9274 12.6539 20.1827 12.9055 20.4347 13.1603L20.4414 13.1674C20.465 13.1885 20.529 13.2506 20.6094 13.3382L20.6104 13.3392C20.9912 13.7559 21.732 14.7678 20.2487 15.0353L20.2487 15.0349ZM6.22864 13.3955C5.60462 13.8464 4.7841 13.936 4.0823 13.6185C2.76516 13.0233 1.99995 12.3129 1.99995 11.5503C1.99995 10.5938 3.20477 9.71854 5.19366 9.04968C7.35179 8.32358 10.4365 7.83908 13.9069 7.75461L14.0458 7.75172C14.2554 7.74692 14.465 7.74404 14.6769 7.74277C14.5348 7.76453 14.3988 7.80037 14.2682 7.84901C14.2669 7.84961 14.2643 7.84961 14.2634 7.85029C14.2195 7.8669 14.1762 7.88504 14.1335 7.90469C14.1315 7.9032 14.1293 7.90181 14.1271 7.90053C13.6065 8.10853 12.9021 8.58472 12.6743 8.74312L12.6359 8.77032L12.6001 8.79592L7.05262 12.8003L6.22827 13.3955L6.22864 13.3955ZM25.0163 8.27429C22.8805 7.63747 20.1911 7.20037 17.2173 7.0544C16.5078 7.01941 15.7976 7.00127 15.0873 7H14.9129C14.1897 7.00128 13.4792 7.01952 12.7835 7.0544C9.80867 7.20032 7.11927 7.63682 4.98321 8.27429C1.92389 9.18697 0 10.5112 0 11.9848C0 13.2328 1.38084 14.3747 3.66128 15.2489C4.58707 15.6035 5.66135 15.9152 6.85279 16.1709C7.82114 16.3798 8.86754 16.5529 9.97391 16.6829C11.5452 16.8685 13.2374 16.9702 15.0003 16.9702C16.763 16.9702 18.4548 16.8688 20.0261 16.6829C21.0741 16.5617 22.1157 16.3909 23.1475 16.1709C24.3387 15.9148 25.4132 15.6035 26.339 15.2489C28.6198 14.3746 30 13.2328 30 11.9848C30 10.5115 28.0758 9.18697 25.0168 8.27429H25.0163Z" fill="#313131"/>
</svg>
