<svg width="81" height="52" viewBox="0 0 81 52" fill="none" xmlns="http://www.w3.org/2000/svg">
<g clip-path="url(#clip0_4203_8534)">
<rect width="80.3636" height="52" rx="12" fill="#9F9F9F"/>
<path d="M0 0H80.3636V52H0V0Z" fill="#DE2910" fill-opacity="0.9"/>
<path d="M9.64366 22.301L15.0681 6.02734L20.4926 22.301L6.02734 12.356H24.1089L9.64366 22.301Z" fill="#FFDE00"/>
<path d="M33.1702 6.33894L27.5878 7.57605L31.3115 3.23683L30.9463 9.07685L27.8483 3.90668L33.1702 6.33894Z" fill="#FFDE00"/>
<path d="M38.8056 13.4798L33.1803 12.455L38.2955 9.89962L35.6939 15.1409L34.8436 9.17388L38.8056 13.4798Z" fill="#FFDE00"/>
<path d="M37.9843 23.4966L33.2661 20.2666L38.9787 20.0197L34.4657 23.7441L36.123 17.9492L37.9843 23.4966Z" fill="#FFDE00"/>
<path d="M30.8864 30.0409L27.7818 25.2392L33.1465 27.2178L27.5452 28.9102L31.312 24.205L30.8864 30.0409Z" fill="#FFDE00"/>
</g>
<defs>
<clipPath id="clip0_4203_8534">
<rect width="80.3636" height="52" rx="12" fill="white"/>
</clipPath>
</defs>
</svg>
