<svg width="81" height="52" viewBox="0 0 81 52" fill="none" xmlns="http://www.w3.org/2000/svg">
<rect width="80.3636" height="52" rx="12" fill="#004CBA"/>
<path d="M30.7561 24.5926L31.0866 25.4427L31.9843 25.4879C32.0227 25.4892 32.0597 25.5024 32.0904 25.5256C32.1211 25.5488 32.144 25.5809 32.1561 25.6176C32.1681 25.6543 32.1686 25.6938 32.1576 25.7309C32.1466 25.7679 32.1245 25.8006 32.0945 25.8246L31.3967 26.4037L31.6252 27.2744C31.6341 27.3108 31.632 27.3492 31.6192 27.3844C31.6063 27.4197 31.5833 27.4503 31.5531 27.4723C31.5229 27.4944 31.4868 27.5068 31.4495 27.5082C31.4122 27.5095 31.3754 27.4996 31.3437 27.4797L30.5807 26.9992L29.8218 27.4797C29.7901 27.4996 29.7533 27.5095 29.716 27.5082C29.6787 27.5068 29.6426 27.4944 29.6124 27.4723C29.5822 27.4503 29.5592 27.4197 29.5463 27.3844C29.5335 27.3492 29.5313 27.3108 29.5402 27.2744L29.7687 26.4037L29.071 25.8205C29.0409 25.7965 29.0189 25.7638 29.0079 25.7268C28.9969 25.6897 28.9974 25.6502 29.0094 25.6135C29.0214 25.5768 29.0443 25.5447 29.075 25.5215C29.1057 25.4983 29.1428 25.4851 29.1812 25.4838L30.0788 25.4386L30.4052 24.5885C30.4192 24.5528 30.4436 24.5223 30.4751 24.5009C30.5067 24.4795 30.544 24.4683 30.5821 24.4687C30.6202 24.4691 30.6572 24.4812 30.6883 24.5034C30.7194 24.5255 30.743 24.5566 30.7561 24.5926ZM32.021 29.4756L32.3475 30.3299L33.2451 30.375C33.2825 30.3773 33.3184 30.3908 33.3481 30.4137C33.3779 30.4367 33.4001 30.4681 33.4119 30.5039C33.4238 30.5397 33.4247 30.5782 33.4146 30.6145C33.4045 30.6508 33.3839 30.6833 33.3553 30.7077L32.6576 31.295L32.886 32.1615C32.8961 32.1983 32.8948 32.2372 32.8824 32.2733C32.87 32.3093 32.847 32.3407 32.8166 32.3633C32.7861 32.386 32.7496 32.3989 32.7117 32.4002C32.6739 32.4016 32.6365 32.3914 32.6045 32.371L31.8456 31.8905L31.0866 32.371C31.0543 32.3905 31.017 32.4001 30.9793 32.3984C30.9416 32.3968 30.9053 32.384 30.8748 32.3616C30.8443 32.3392 30.8211 32.3083 30.8079 32.2728C30.7948 32.2372 30.7924 32.1985 30.801 32.1615L31.0295 31.295L30.3318 30.7077C30.3032 30.6833 30.2825 30.6508 30.2724 30.6145C30.2623 30.5782 30.2633 30.5397 30.2751 30.5039C30.287 30.4681 30.3092 30.4367 30.3389 30.4137C30.3687 30.3908 30.4046 30.3773 30.442 30.375L31.3396 30.3299L31.6701 29.4756C31.6836 29.4398 31.7077 29.409 31.739 29.3872C31.7703 29.3655 31.8075 29.3538 31.8456 29.3538C31.8836 29.3538 31.9208 29.3655 31.9521 29.3872C31.9835 29.409 32.0075 29.4398 32.021 29.4756ZM31.6701 19.7465L31.3396 20.5966L30.442 20.6418C30.4036 20.6431 30.3666 20.6563 30.3358 20.6795C30.3051 20.7027 30.2822 20.7348 30.2702 20.7715C30.2582 20.8082 30.2577 20.8478 30.2687 20.8848C30.2797 20.9218 30.3017 20.9545 30.3318 20.9786L31.0295 21.5617L30.801 22.4283C30.7924 22.4652 30.7948 22.5039 30.8079 22.5395C30.8211 22.5751 30.8443 22.606 30.8748 22.6284C30.9053 22.6507 30.9416 22.6635 30.9793 22.6652C31.017 22.6669 31.0543 22.6573 31.0866 22.6377L31.8456 22.1572L32.6045 22.6377C32.6365 22.6581 32.6739 22.6683 32.7117 22.667C32.7496 22.6656 32.7861 22.6528 32.8166 22.6301C32.847 22.6074 32.87 22.576 32.8824 22.54C32.8948 22.504 32.8961 22.465 32.886 22.4283L32.6576 21.5617L33.3553 20.9786C33.3854 20.9545 33.4074 20.9218 33.4184 20.8848C33.4294 20.8478 33.4289 20.8082 33.4169 20.7715C33.4048 20.7348 33.3819 20.7027 33.3512 20.6795C33.3205 20.6563 33.2835 20.6431 33.2451 20.6418L32.3475 20.5966L32.021 19.7465C32.0075 19.7107 31.9835 19.6799 31.9521 19.6581C31.9208 19.6364 31.8836 19.6247 31.8456 19.6247C31.8075 19.6247 31.7703 19.6364 31.739 19.6581C31.7077 19.6799 31.6836 19.7107 31.6701 19.7465ZM40.1816 15.1058L40.508 15.96L41.4057 16.0052C41.4434 16.0067 41.4798 16.0196 41.5102 16.0423C41.5405 16.0649 41.5633 16.0963 41.5757 16.1322C41.588 16.1682 41.5893 16.207 41.5793 16.2437C41.5694 16.2804 41.5487 16.3132 41.5199 16.3378L40.8222 16.921L41.0466 17.7916C41.0566 17.8284 41.0553 17.8674 41.0429 17.9034C41.0305 17.9394 41.0076 17.9708 40.9771 17.9935C40.9467 18.0161 40.9101 18.029 40.8723 18.0304C40.8344 18.0317 40.797 18.0215 40.765 18.0011L40.0061 17.5165L39.2472 18.0011C39.2146 18.0166 39.1783 18.0224 39.1426 18.0178C39.1069 18.0131 39.0732 17.9982 39.0457 17.9748C39.0182 17.9514 38.9979 17.9206 38.9873 17.8859C38.9768 17.8512 38.9763 17.8142 38.9861 17.7793L39.2105 16.9087L38.5127 16.3255C38.484 16.3009 38.4632 16.2681 38.4533 16.2314C38.4433 16.1947 38.4446 16.1558 38.457 16.1199C38.4693 16.084 38.4921 16.0526 38.5225 16.0299C38.5528 16.0073 38.5892 15.9943 38.627 15.9929L39.5246 15.9477L39.8511 15.0935C39.8682 15.064 39.893 15.0397 39.9227 15.0233C39.9525 15.0069 39.9861 14.9989 40.02 15.0001C40.0539 15.0014 40.0868 15.0119 40.1153 15.0305C40.1437 15.0491 40.1666 15.0751 40.1816 15.1058ZM40.1816 34.0794L40.508 34.9295L41.4057 34.9747C41.4434 34.9762 41.4798 34.9891 41.5102 35.0118C41.5405 35.0345 41.5633 35.0658 41.5757 35.1017C41.588 35.1377 41.5893 35.1765 41.5793 35.2132C41.5694 35.2499 41.5487 35.2827 41.5199 35.3074L40.8222 35.8946L41.0466 36.7612C41.0566 36.7979 41.0553 36.8369 41.0429 36.8729C41.0305 36.9089 41.0076 36.9403 40.9771 36.963C40.9467 36.9857 40.9101 36.9985 40.8723 36.9999C40.8344 37.0012 40.797 36.991 40.765 36.9706L40.0061 36.4901L39.2472 36.9706C39.2152 36.991 39.1778 37.0012 39.14 36.9999C39.1021 36.9985 39.0656 36.9857 39.0351 36.963C39.0047 36.9403 38.9817 36.9089 38.9693 36.8729C38.9569 36.8369 38.9556 36.7979 38.9657 36.7612L39.1901 35.8946L38.4923 35.3074C38.4636 35.2827 38.4428 35.2499 38.4329 35.2132C38.4229 35.1765 38.4242 35.1377 38.4366 35.1017C38.4489 35.0658 38.4717 35.0345 38.5021 35.0118C38.5324 34.9891 38.5688 34.9762 38.6066 34.9747L39.5042 34.9295L39.8307 34.0794C39.8442 34.0436 39.8682 34.0128 39.8995 33.991C39.9309 33.9692 39.9681 33.9576 40.0061 33.9576C40.0442 33.9576 40.0814 33.9692 40.1127 33.991C40.144 34.0128 40.168 34.0436 40.1816 34.0794ZM35.5913 16.3953L35.9218 17.2495L36.8194 17.2947C36.8568 17.297 36.8927 17.3105 36.9225 17.3334C36.9522 17.3564 36.9744 17.3878 36.9863 17.4236C36.9981 17.4593 36.999 17.4979 36.9889 17.5342C36.9788 17.5705 36.9582 17.603 36.9296 17.6274L36.2319 18.2147L36.4604 19.0812C36.469 19.1182 36.4666 19.1569 36.4535 19.1924C36.4403 19.228 36.4171 19.2589 36.3866 19.2813C36.3561 19.3036 36.3197 19.3165 36.2821 19.3181C36.2444 19.3198 36.2071 19.3102 36.1747 19.2906L35.4158 18.8101L34.6569 19.2906C34.6249 19.3111 34.5875 19.3213 34.5497 19.3199C34.5118 19.3185 34.4753 19.3057 34.4448 19.283C34.4144 19.2604 34.3914 19.229 34.379 19.1929C34.3666 19.1569 34.3653 19.118 34.3753 19.0812L34.6038 18.2147L33.9061 17.6274C33.8775 17.603 33.8569 17.5705 33.8468 17.5342C33.8367 17.4979 33.8376 17.4593 33.8495 17.4236C33.8613 17.3878 33.8835 17.3564 33.9133 17.3334C33.943 17.3105 33.9789 17.297 34.0163 17.2947L34.9139 17.2495L35.2404 16.3953C35.2539 16.3595 35.2779 16.3287 35.3092 16.3069C35.3406 16.2852 35.3777 16.2735 35.4158 16.2735C35.4539 16.2735 35.4911 16.2852 35.5224 16.3069C35.5537 16.3287 35.5777 16.3595 35.5913 16.3953ZM45.0167 32.8268L45.3431 33.6769L46.2408 33.7221C46.2791 33.7235 46.3162 33.7366 46.3469 33.7598C46.3776 33.783 46.4005 33.8151 46.4125 33.8518C46.4245 33.8885 46.4251 33.9281 46.4141 33.9651C46.403 34.0021 46.381 34.0348 46.3509 34.0589L45.6573 34.642L45.8817 35.5127C45.8906 35.5492 45.8885 35.5875 45.8756 35.6228C45.8628 35.658 45.8398 35.6886 45.8096 35.7107C45.7793 35.7327 45.7433 35.7452 45.706 35.7465C45.6687 35.7478 45.6318 35.7379 45.6002 35.718L44.8412 35.2375L44.0823 35.718C44.0506 35.7393 44.0132 35.7504 43.9752 35.7498C43.9371 35.7491 43.9001 35.7369 43.8691 35.7146C43.8381 35.6923 43.8146 35.6611 43.8016 35.625C43.7887 35.5889 43.787 35.5498 43.7967 35.5127L44.0252 34.642L43.3275 34.0589C43.2972 34.0346 43.275 34.0015 43.2642 33.9641C43.2533 33.9267 43.2541 33.8868 43.2667 33.85C43.2792 33.8131 43.3027 33.781 43.334 33.7581C43.3654 33.7352 43.403 33.7226 43.4417 33.7221L44.3353 33.6769L44.6658 32.8268C44.6793 32.791 44.7033 32.7602 44.7347 32.7384C44.766 32.7167 44.8032 32.705 44.8412 32.705C44.8793 32.705 44.9165 32.7167 44.9478 32.7384C44.9791 32.7602 45.0032 32.791 45.0167 32.8268ZM49.5948 24.5926L49.9212 25.4427L50.8188 25.4879C50.8572 25.4892 50.8942 25.5024 50.925 25.5256C50.9557 25.5488 50.9786 25.5809 50.9906 25.6176C51.0026 25.6543 51.0031 25.6938 50.9921 25.7309C50.9811 25.7679 50.9591 25.8006 50.929 25.8246L50.2435 26.4037L50.472 27.2744C50.4809 27.3108 50.4788 27.3492 50.4659 27.3844C50.4531 27.4197 50.4301 27.4503 50.3999 27.4723C50.3696 27.4944 50.3336 27.5068 50.2963 27.5082C50.259 27.5095 50.2222 27.4996 50.1905 27.4797L49.4315 26.9992L48.6685 27.4797C48.6369 27.4996 48.6 27.5095 48.5627 27.5082C48.5254 27.5068 48.4894 27.4944 48.4592 27.4723C48.4289 27.4503 48.4059 27.4197 48.3931 27.3844C48.3802 27.3492 48.3781 27.3108 48.387 27.2744L48.6155 26.4037L47.9178 25.8205C47.8877 25.7965 47.8657 25.7638 47.8547 25.7268C47.8436 25.6897 47.8442 25.6502 47.8562 25.6135C47.8682 25.5768 47.8911 25.5447 47.9218 25.5215C47.9525 25.4983 47.9896 25.4851 48.0279 25.4838L48.9256 25.4386L49.2561 24.5885C49.2718 24.5565 49.2961 24.5296 49.3263 24.511C49.3565 24.4923 49.3913 24.4827 49.4267 24.4831C49.4621 24.4835 49.4967 24.494 49.5264 24.5134C49.5562 24.5328 49.5799 24.5602 49.5948 24.5926ZM34.9955 32.8268L34.6691 33.6769L33.7715 33.7221C33.7331 33.7235 33.6961 33.7366 33.6653 33.7598C33.6346 33.783 33.6117 33.8151 33.5997 33.8518C33.5877 33.8885 33.5872 33.9281 33.5982 33.9651C33.6092 34.0021 33.6312 34.0348 33.6613 34.0589L34.3549 34.642L34.1305 35.5127C34.1216 35.5492 34.1238 35.5875 34.1366 35.6228C34.1495 35.658 34.1725 35.6886 34.2027 35.7107C34.2329 35.7327 34.269 35.7452 34.3063 35.7465C34.3436 35.7478 34.3804 35.7379 34.4121 35.718L35.171 35.2375L35.9299 35.718C35.9616 35.7393 35.999 35.7504 36.0371 35.7498C36.0752 35.7491 36.1122 35.7369 36.1432 35.7146C36.1741 35.6923 36.1977 35.6611 36.2106 35.625C36.2235 35.5889 36.2253 35.5498 36.2155 35.5127L35.9871 34.642L36.6848 34.0589C36.7149 34.0348 36.7369 34.0021 36.7479 33.9651C36.7589 33.9281 36.7584 33.8885 36.7464 33.8518C36.7343 33.8151 36.7114 33.783 36.6807 33.7598C36.65 33.7366 36.613 33.7235 36.5746 33.7221L35.677 33.6769L35.3465 32.8268C35.3329 32.791 35.3089 32.7602 35.2776 32.7384C35.2462 32.7167 35.2091 32.705 35.171 32.705C35.1329 32.705 35.0958 32.7167 35.0644 32.7384C35.0331 32.7602 35.0091 32.791 34.9955 32.8268ZM44.421 16.3953L44.0905 17.2495L43.1928 17.2947C43.1554 17.297 43.1195 17.3105 43.0898 17.3334C43.0601 17.3564 43.0378 17.3878 43.026 17.4236C43.0141 17.4593 43.0132 17.4979 43.0233 17.5342C43.0334 17.5705 43.0541 17.603 43.0826 17.6274L43.7804 18.2147L43.5519 19.0812C43.5433 19.1182 43.5457 19.1569 43.5588 19.1924C43.5719 19.228 43.5952 19.2589 43.6257 19.2813C43.6561 19.3036 43.6925 19.3165 43.7302 19.3181C43.7679 19.3198 43.8052 19.3102 43.8375 19.2906L44.5964 18.8101L45.3554 19.2906C45.3873 19.3111 45.4247 19.3213 45.4626 19.3199C45.5004 19.3185 45.537 19.3057 45.5674 19.283C45.5979 19.2604 45.6208 19.229 45.6332 19.1929C45.6456 19.1569 45.6469 19.118 45.6369 19.0812L45.4084 18.2147L46.1061 17.6274C46.1347 17.603 46.1554 17.5705 46.1655 17.5342C46.1756 17.4979 46.1746 17.4593 46.1628 17.4236C46.1509 17.3878 46.1287 17.3564 46.099 17.3334C46.0692 17.3105 46.0334 17.297 45.996 17.2947L45.0983 17.2495L44.7719 16.3953C44.7584 16.3595 44.7343 16.3287 44.703 16.3069C44.6717 16.2852 44.6345 16.2735 44.5964 16.2735C44.5584 16.2735 44.5212 16.2852 44.4899 16.3069C44.4585 16.3287 44.4345 16.3595 44.421 16.3953ZM48.3421 19.9929L48.6726 20.843L49.5703 20.8882C49.6086 20.8896 49.6457 20.9027 49.6764 20.9259C49.7071 20.9491 49.73 20.9812 49.742 21.0179C49.754 21.0546 49.7546 21.0942 49.7436 21.1312C49.7325 21.1682 49.7105 21.2009 49.6804 21.225L48.9827 21.8081L49.2112 22.6747C49.2198 22.7116 49.2174 22.7503 49.2043 22.7859C49.1912 22.8215 49.1679 22.8524 49.1374 22.8748C49.107 22.8971 49.0706 22.9099 49.0329 22.9116C48.9952 22.9133 48.9579 22.9037 48.9256 22.8841L48.1667 22.4036L47.4077 22.8841C47.3757 22.9046 47.3384 22.9148 47.3005 22.9134C47.2627 22.912 47.2261 22.8992 47.1957 22.8765C47.1652 22.8539 47.1423 22.8225 47.1299 22.7864C47.1175 22.7504 47.1162 22.7115 47.1262 22.6747L47.3547 21.8081L46.657 21.225C46.6269 21.2009 46.6049 21.1682 46.5939 21.1312C46.5828 21.0942 46.5834 21.0546 46.5954 21.0179C46.6074 20.9812 46.6303 20.9491 46.661 20.9259C46.6917 20.9027 46.7288 20.8896 46.7671 20.8882L47.6648 20.843L47.9912 19.9929C48.0047 19.9571 48.0288 19.9263 48.0601 19.9045C48.0914 19.8828 48.1286 19.8711 48.1667 19.8711C48.2047 19.8711 48.2419 19.8828 48.2732 19.9045C48.3046 19.9263 48.3286 19.9571 48.3421 19.9929ZM47.9912 29.2292L47.6648 30.0834L46.7671 30.1286C46.7297 30.1309 46.6938 30.1444 46.6641 30.1673C46.6344 30.1903 46.6122 30.2217 46.6003 30.2575C46.5884 30.2932 46.5875 30.3318 46.5976 30.3681C46.6077 30.4044 46.6284 30.4369 46.657 30.4613L47.3547 31.0486L47.1262 31.9151C47.1162 31.9519 47.1175 31.9908 47.1299 32.0268C47.1423 32.0629 47.1652 32.0943 47.1957 32.1169C47.2261 32.1396 47.2627 32.1524 47.3005 32.1538C47.3384 32.1552 47.3757 32.145 47.4077 32.1245L48.1667 31.644L48.9256 32.1245C48.9579 32.1441 48.9952 32.1537 49.0329 32.152C49.0706 32.1504 49.107 32.1375 49.1374 32.1152C49.1679 32.0928 49.1912 32.0619 49.2043 32.0263C49.2174 31.9908 49.2198 31.9521 49.2112 31.9151L48.9827 31.0486L49.6804 30.4613C49.709 30.4369 49.7297 30.4044 49.7398 30.3681C49.7499 30.3318 49.749 30.2932 49.7371 30.2575C49.7253 30.2217 49.703 30.1903 49.6733 30.1673C49.6436 30.1444 49.6077 30.1309 49.5703 30.1286L48.6726 30.0834L48.3421 29.2292C48.3286 29.1934 48.3046 29.1626 48.2732 29.1408C48.2419 29.1191 48.2047 29.1074 48.1667 29.1074C48.1286 29.1074 48.0914 29.1191 48.0601 29.1408C48.0288 29.1626 48.0047 29.1934 47.9912 29.2292Z" fill="#FFE600"/>
</svg>
