<svg width="30" height="24" viewBox="0 0 30 24" fill="none" xmlns="http://www.w3.org/2000/svg">
<path d="M25.6585 8.04397C27.3661 8.99075 29.2985 10.6554 29.097 12.8747C28.8627 14.9316 26.9706 16.3674 25.2799 17.2325C20.3429 19.6237 13.4096 19.6968 8.31228 17.6076C6.58975 16.8812 4.65635 15.6324 3.93191 13.756C3.3771 12.2138 4.0528 10.607 5.18866 9.53773C7.56441 7.35074 10.5924 6.60054 13.7086 6.16751C17.0908 5.75158 20.6502 6.11908 23.6783 7.17127C24.3549 7.42482 25.0222 7.70211 25.6585 8.04397Z" fill="#397DB7"/>
<path d="M19.0794 14.066C19.2734 15.0774 18.7495 15.9178 18.3147 16.7344C17.8311 17.4932 17.0345 18.1456 16.0758 18.0487C13.975 18.0193 11.8884 17.6952 9.87538 17.0858C9.78276 17.0615 9.70229 17.0033 9.64952 16.9225C9.60922 16.8085 9.66639 16.7022 9.74698 16.629C11.5267 15.1685 13.6447 14.4914 15.7384 13.7811C16.519 13.5523 17.3494 13.3073 18.2266 13.4222C18.5883 13.4706 18.951 13.7232 19.0794 14.066ZM26.4156 9.74141C27.4137 10.5733 28.3162 11.7081 28.0098 13.0784C27.5103 15.102 25.336 16.1799 23.605 16.8645C22.6632 17.1827 21.7129 17.5093 20.682 17.6071C20.6173 17.5996 20.5124 17.6157 20.4964 17.5179L20.5208 17.4039C21.9856 15.7307 23.0971 13.8542 24.0718 11.9531C24.5225 11.0965 24.9415 10.2153 25.3276 9.35017C25.3754 9.29477 25.4364 9.25262 25.5047 9.22766C25.8683 9.25995 26.1261 9.54484 26.4156 9.74141ZM12.3636 7.58671L12.3308 7.70922C10.2128 10.1488 8.82011 12.9806 7.49963 15.7953C7.2419 16.0403 6.99168 15.7136 6.75832 15.6082C5.5831 14.8247 4.52034 13.5599 4.82679 12.0585C5.31788 10.1004 7.30657 9.05483 8.96631 8.34546C9.96282 7.95566 10.9964 7.67116 12.0506 7.4965C12.1621 7.49745 12.3074 7.48131 12.3636 7.58671ZM22.8722 7.97891C22.9931 8.04348 23.1383 8.06817 23.2105 8.19067C23.2752 8.32932 23.1458 8.41953 23.0737 8.5088C21.4064 9.83068 19.4983 10.5647 17.549 11.2095C16.5584 11.4536 15.5594 11.8952 14.4563 11.6502C14.3233 11.6157 14.1985 11.5546 14.0892 11.4704C13.9799 11.3863 13.8883 11.2808 13.82 11.1602C13.5463 10.3929 13.9165 9.59327 14.2389 8.92473C14.6662 8.08432 15.4225 7.09671 16.4694 7.08056C18.7252 7.06537 20.8516 7.40724 22.8722 7.97891Z" fill="#F2F2F2"/>
</svg>
