<svg width="30" height="24" viewBox="0 0 30 24" fill="none" xmlns="http://www.w3.org/2000/svg">
<g clip-path="url(#clip0_5829_2021)">
<path d="M17.5411 15.7999C17.5193 15.7886 17.5011 15.7713 17.4887 15.7501C17.4763 15.7288 17.4702 15.7045 17.4711 15.6799C17.4711 15.6799 17.7011 14.9299 17.9811 14.0799L18.9811 11.0799L19.6111 9.20992C19.6811 8.98992 19.7511 8.77992 19.7511 8.74992C19.7583 8.72375 19.7583 8.6961 19.7511 8.66992C19.7511 8.66992 19.6411 8.61992 19.5611 8.61992H19.4011V8.16992H22.4011L22.4811 8.21992C22.4811 8.21992 22.6611 8.73992 23.4311 11.0299C24.6811 14.7599 24.9611 15.6199 24.9611 15.6599C24.9618 15.687 24.9546 15.7137 24.9404 15.7368C24.9262 15.7599 24.9056 15.7783 24.8811 15.7899C24.8811 15.7899 24.5711 15.7899 23.9311 15.7899C23.5994 15.8366 23.2628 15.8366 22.9311 15.7899L22.8411 15.7199C22.8411 15.7199 22.7011 15.3299 22.5611 14.8899C21.2411 10.7799 21.2811 10.8899 21.2511 10.8899H21.1511C21.1111 10.8899 21.0811 11.0799 20.3611 13.3399L19.8611 14.9099C19.7911 15.1099 19.7111 15.3799 19.6711 15.4999C19.6311 15.6199 19.5611 15.7899 19.4811 15.8299C19.4011 15.8699 17.6211 15.8299 17.5711 15.8299L17.5411 15.7999ZM14.0011 15.7999V8.71992H13.9511C13.9011 8.71992 13.8911 8.66992 13.7411 8.66992H13.5911V8.21992H16.0511L16.1011 8.26992V15.7299H15.0011C14.668 15.7491 14.3342 15.7491 14.0011 15.7299V15.7999ZM5.82109 15.7999C5.82109 15.7999 5.77109 15.7999 5.75109 15.7499C5.68785 14.5741 5.68785 13.3957 5.75109 12.2199V8.71992C5.75109 8.71992 5.70109 8.66992 5.54109 8.66992H5.37109V8.21992H7.80109V9.47992C7.80109 10.8699 7.80109 10.8199 7.90109 10.8199C8.00109 10.8199 7.98109 10.8199 8.33109 10.2999C9.24109 9.00992 9.74109 8.29992 9.79109 8.29992C9.84109 8.29992 9.85109 8.18992 11.0011 8.18992H12.0011C12.0174 8.2134 12.0262 8.24132 12.0262 8.26992C12.0262 8.29853 12.0174 8.32645 12.0011 8.34992C12.0011 8.34992 11.5411 9.03992 10.0011 11.3499C9.83109 11.6099 9.78109 11.6899 9.78109 11.7299C9.94628 12.0409 10.1405 12.3355 10.3611 12.6099C11.1204 13.5693 11.8249 14.5709 12.4711 15.6099C12.4799 15.6251 12.4845 15.6424 12.4845 15.6599C12.4845 15.6775 12.4799 15.6947 12.4711 15.7099H10.2311C10.1857 15.6975 10.1443 15.6733 10.1111 15.6399C10.1111 15.6399 9.59109 14.9999 9.00109 14.1799L7.92109 12.6799C7.9024 12.6616 7.87727 12.6513 7.85109 12.6513C7.82492 12.6513 7.79979 12.6616 7.78109 12.6799C7.78109 12.6799 7.78109 13.0499 7.78109 14.2099V15.6899H5.82109V15.7999Z" fill="black"/>
<path d="M14.1701 19.5101C13.1465 19.4856 12.1249 19.4055 11.1101 19.2701C6.97005 18.7101 3.51005 17.2701 1.58005 15.3701C0.827328 14.6664 0.301588 13.7541 0.0700503 12.7501C-0.0233501 12.2544 -0.0233501 11.7457 0.0700503 11.2501C0.206128 10.6111 0.475308 10.008 0.86005 9.48006C2.06742 7.98297 3.66176 6.84514 5.47005 6.19006C9.46407 4.68441 13.7588 4.14971 18 4.63006C23.23 5.15006 27.5301 7.06006 29.2401 9.63006C29.6168 10.154 29.8632 10.7603 29.9589 11.3985C30.0545 12.0368 29.9967 12.6886 29.7901 13.3001C29.5008 14.0907 29.0358 14.8053 28.43 15.3901C26.6 17.2101 23.3801 18.5901 19.5201 19.2001C17.7538 19.4723 15.9664 19.5828 14.1801 19.5301L14.1701 19.5101ZM16.4501 18.5101C18.3469 18.4038 20.224 18.068 22.0401 17.5101C23.3182 17.1236 24.5365 16.5615 25.66 15.8401C26.1004 15.5501 26.5093 15.215 26.88 14.8401C27.2926 14.4506 27.6313 13.9899 27.8801 13.4801C28.1332 12.9972 28.2655 12.4602 28.2655 11.9151C28.2655 11.3699 28.1332 10.8329 27.8801 10.3501C27.626 9.85232 27.2877 9.40234 26.88 9.02006C26.1561 8.31122 25.3176 7.72971 24.4 7.30006C22.1817 6.25125 19.7877 5.62393 17.34 5.45006C15.7799 5.31007 14.2102 5.31007 12.6501 5.45006C8.86005 5.79006 5.65005 6.92006 3.59005 8.58006C3.26223 8.85787 2.95787 9.16224 2.68005 9.49006C2.04087 10.2289 1.70818 11.184 1.75005 12.1601C1.85995 13.192 2.34798 14.1467 3.12005 14.8401C3.82519 15.5318 4.63942 16.1028 5.53005 16.5301C8.13508 17.7754 10.9736 18.4569 13.8601 18.5301H16.4501V18.5101Z" fill="black"/>
</g>
<defs>
<clipPath id="clip0_5829_2021">
<rect width="30" height="24" fill="white"/>
</clipPath>
</defs>
</svg>
