<svg width="66" height="46" viewBox="0 0 66 46" fill="none" xmlns="http://www.w3.org/2000/svg">
<mask id="mask0_4203_8472" style="mask-type:luminance" maskUnits="userSpaceOnUse" x="0" y="0" width="66" height="46">
<path d="M0.582031 0.151367H65.0296V45.8483H0.582031V0.151367Z" fill="white"/>
</mask>
<g mask="url(#mask0_4203_8472)">
<path fill-rule="evenodd" clip-rule="evenodd" d="M33.4043 23.036C33.4043 25.6989 32.2854 28.2529 30.2937 30.1359C28.3021 32.0189 25.6008 33.0768 22.7842 33.0768C19.9675 33.0768 17.2663 32.0189 15.2746 30.1359C13.283 28.2529 12.1641 25.6989 12.1641 23.036C12.1641 20.373 13.283 17.819 15.2746 15.936C17.2663 14.053 19.9675 12.9951 22.7842 12.9951C25.6008 12.9951 28.3021 14.053 30.2937 15.936C32.2854 17.819 33.4043 20.373 33.4043 23.036Z" fill="white"/>
<path fill-rule="evenodd" clip-rule="evenodd" d="M46.7243 23.6248C46.7243 30.8542 40.5882 36.7269 33.0078 36.7269C25.4274 36.7269 19.3008 30.8542 19.3008 23.6248C19.3008 16.3954 25.4368 10.5137 33.0173 10.5137C40.5977 10.5137 46.7243 16.3954 46.7243 23.6248Z" fill="#C70000"/>
<path fill-rule="evenodd" clip-rule="evenodd" d="M4.96094 11.4686L12.8529 2.83789L14.7314 4.3641L6.83008 13.0037L4.96094 11.4686ZM7.54753 13.5838L15.4395 4.95316L17.318 6.47044L9.41667 15.119L7.54753 13.5838Z" fill="black"/>
<path fill-rule="evenodd" clip-rule="evenodd" d="M4.96094 11.4685L12.8529 2.83789L14.7314 4.3641L6.83008 13.0037L4.96094 11.4685Z" fill="black"/>
<path fill-rule="evenodd" clip-rule="evenodd" d="M4.96094 11.4685L12.8529 2.83789L14.7315 4.3641L6.83008 13.0037L4.96094 11.4685ZM10.1908 15.7526L18.0827 7.10413L19.9613 8.63926L12.0599 17.2788L10.1908 15.7526Z" fill="black"/>
<path fill-rule="evenodd" clip-rule="evenodd" d="M4.96094 11.4685L12.8529 2.83789L14.7314 4.3641L6.83008 13.0037L4.96094 11.4685Z" fill="black"/>
<path fill-rule="evenodd" clip-rule="evenodd" d="M4.96094 11.4687L12.8529 2.83803L14.7314 4.36423L6.83008 13.0038L4.96094 11.4687ZM52.9922 2.8291L60.8275 11.5222L58.9394 13.0395L51.1041 4.34638L52.9922 2.8291ZM47.734 7.06857L55.5693 15.7617L53.6813 17.279L45.846 8.58585L47.734 7.06857Z" fill="black"/>
<path fill-rule="evenodd" clip-rule="evenodd" d="M49.0462 12.0757L56.4473 6.02441L57.835 7.5417L49.9053 14.2713L49.0273 12.0757H49.0462Z" fill="white"/>
<path fill-rule="evenodd" clip-rule="evenodd" d="M58.1676 33.3892L50.5778 41.9395L48.7181 40.4758L56.3079 31.9255L58.1676 33.3892ZM50.389 4.92676L58.2243 13.6199L56.3457 15.1372L48.5199 6.43512L50.389 4.92676ZM60.7448 35.4152L53.1455 43.9656L51.2764 42.5018L58.8757 33.9515L60.7448 35.4152ZM55.5433 31.3275L47.9535 39.8778L46.0938 38.4141L53.6836 29.8637L55.5433 31.3275Z" fill="black"/>
<path fill-rule="evenodd" clip-rule="evenodd" d="M19.5005 21.313C19.9347 24.6153 20.5672 28.2925 25.9386 28.6674C27.9494 28.7834 31.867 28.2211 33.2075 23.0267C34.9823 18.0464 40.2876 16.6184 43.9032 19.3138C45.9705 20.5812 46.5369 22.5893 46.6691 24.1066C46.5086 28.9262 43.5633 33.121 39.7967 34.9953C35.4543 37.4319 29.4504 37.4855 24.1922 33.7904C21.8228 31.693 18.5093 27.8106 19.5005 21.313Z" fill="#3D5897"/>
<path fill-rule="evenodd" clip-rule="evenodd" d="M50.7861 33.2637L58.206 39.2971L56.8278 40.8144L48.6055 34.4061L50.7767 33.2637H50.7861Z" fill="white"/>
<path fill-rule="evenodd" clip-rule="evenodd" d="M9.44661 32.0684L17.2819 40.7526L15.3939 42.2698L7.55859 33.5856L9.44661 32.0684Z" fill="black"/>
<path fill-rule="evenodd" clip-rule="evenodd" d="M8.09766 39.2174L15.5176 33.1572L16.9053 34.6745L8.97559 41.413L8.09766 39.2085V39.2174Z" fill="white"/>
<path fill-rule="evenodd" clip-rule="evenodd" d="M12.0524 29.9707L19.8877 38.6549L17.9997 40.1722L10.1644 31.488L12.0524 29.9707ZM6.79427 34.2102L14.6296 42.8944L12.7415 44.4117L4.90625 35.7275L6.79427 34.2102Z" fill="black"/>
</g>
</svg>
