<svg width="26" height="26" viewBox="0 0 26 26" fill="none" xmlns="http://www.w3.org/2000/svg">
<g clip-path="url(#clip0_5829_737)">
<path d="M25.7164 13.0008C25.7164 20.0289 20.0289 25.7164 13.0008 25.7164C5.97266 25.7164 0.285156 20.0289 0.285156 13.0008C0.285156 5.97266 5.97266 0.285156 13.0008 0.285156C20.0289 0.285156 25.7164 5.97266 25.7164 13.0008ZM13.0008 1.05703C6.37891 1.05703 1.05703 6.37891 1.05703 13.0008C1.05703 19.6227 6.41953 24.9445 13.0008 24.9445C19.6227 24.9445 24.9445 19.582 24.9445 13.0008C24.9445 6.37891 19.6227 1.05703 13.0008 1.05703Z" fill="url(#paint0_linear_5829_737)"/>
<path d="M12.9984 1.05664C6.37656 1.05664 1.05469 6.37852 1.05469 13.0004C1.05469 19.6223 6.41719 24.9441 12.9984 24.9441C19.6203 24.9441 24.9422 19.5816 24.9422 13.0004C24.9422 6.37852 19.6203 1.05664 12.9984 1.05664ZM12.9984 24.1723C6.82344 24.1723 1.82656 19.1754 1.82656 13.0004C1.82656 6.82539 6.82344 1.82852 12.9984 1.82852C19.1734 1.82852 24.1703 6.82539 24.1703 13.0004C24.1703 19.1754 19.1734 24.1723 12.9984 24.1723Z" fill="url(#paint1_linear_5829_737)"/>
<path opacity="0.4" d="M13 25.7156C20.0281 25.7156 25.7156 20.0281 25.7156 13C25.7156 5.97188 20.0281 0.284375 13 0.284375C5.97188 0.284375 0.284375 5.97188 0.284375 13C0.284375 20.0281 5.97188 25.7156 13 25.7156ZM13 0C20.15 0 26 5.85 26 13C26 20.15 20.15 26 13 26C5.85 26 0 20.15 0 13C0 5.85 5.85 0 13 0Z" fill="url(#paint2_linear_5829_737)"/>
<path d="M0.894531 13.0414C0.894531 6.37891 6.29766 0.894531 13.0008 0.894531C19.7039 0.894531 25.107 6.33828 25.107 13.0414C25.107 19.7039 19.7039 25.107 13.0008 25.107C6.29766 25.107 0.894531 19.7039 0.894531 13.0414ZM4.67266 4.67266C2.51953 6.82578 1.17891 9.7914 1.17891 13.0414C1.17891 16.2914 2.51953 19.257 4.63203 21.3695C6.78516 23.482 9.75078 24.8227 13.0008 24.8227C16.2508 24.8227 19.2164 23.5227 21.3289 21.3695C23.482 19.257 24.782 16.2914 24.782 13.0414C24.782 9.7914 23.4414 6.82578 21.3289 4.67266C19.2164 2.51953 16.2508 1.17891 13.0008 1.17891C9.75078 1.17891 6.78516 2.51953 4.67266 4.67266Z" fill="white"/>
<path opacity="0.4" d="M13.0016 24.2121C9.99531 24.2121 7.19219 23.034 5.07969 20.9215C2.96719 18.809 1.78906 16.0059 1.78906 12.9996C1.78906 9.99336 2.96719 7.19023 5.07969 5.07773C7.19219 2.96523 9.99531 1.78711 13.0016 1.78711C16.0078 1.78711 18.8109 2.96523 20.9234 5.07773C23.0359 7.19023 24.2141 9.99336 24.2141 12.9996C24.2141 16.0059 23.0359 18.809 20.9234 20.9215C18.8109 23.034 16.0078 24.2121 13.0016 24.2121ZM13.0016 23.8871C15.8859 23.8871 18.6484 22.7496 20.6797 20.7184C22.7516 18.6465 23.8484 15.9246 23.8484 13.0402C23.8484 10.1559 22.7109 7.39336 20.6797 5.36211C18.6078 3.29023 15.8859 2.19336 13.0016 2.19336C10.1172 2.19336 7.35469 3.33086 5.32344 5.36211C3.25156 7.35273 2.11406 10.1152 2.11406 12.9996C2.11406 15.884 3.25156 18.6465 5.28281 20.6777C7.35469 22.7496 10.1172 23.8871 13.0016 23.8871Z" fill="url(#paint3_linear_5829_737)"/>
<path d="M22.8711 18.2816C22.668 18.1191 14.8273 11.9035 14.8273 11.9035L12.9992 1.46289C12.8773 1.50352 12.7148 1.62539 12.6336 1.78789L11.3336 11.9441L3.24922 18.1598C3.24922 18.1598 3.08672 18.3629 3.00547 18.4848C2.96484 18.566 2.96484 18.6879 2.96484 18.8098L12.9586 14.7066L22.9523 18.8098C23.0336 18.6066 22.9523 18.4035 22.8711 18.2816Z" fill="white"/>
<path d="M13.0813 13.325L13 15.1938L22.1812 18.8907C22.5062 19.0532 22.75 18.9719 22.9937 18.8094L13.2031 13.2844C13.1625 13.2438 13.0813 13.2844 13.0813 13.325Z" fill="#565F64"/>
<path d="M13.082 13.325C13.082 13.325 13.6102 14.2594 14.2195 14.9094C15.0727 15.8438 16.2102 16.4938 16.2102 16.4938L22.182 18.8907C22.507 19.0532 22.7508 18.9719 22.9945 18.8094L13.2039 13.2844C13.1633 13.2438 13.082 13.2844 13.082 13.325Z" fill="url(#paint4_linear_5829_737)"/>
<path d="M22.9547 18.4434C22.9547 18.4027 22.9141 18.3621 22.8734 18.2809L14.5047 12.1465L13.3672 12.8777C13.3672 12.8777 13.4484 12.9184 13.4891 12.8777C13.6109 12.8371 13.8547 12.7965 14.0984 12.8777C14.3016 12.959 22.9547 18.484 22.9547 18.4434C22.9547 18.484 22.9547 18.484 22.9547 18.4434Z" fill="#A4AAAE" fill-opacity="0.6"/>
<path d="M22.6695 18.0773L14.8695 11.9023L14.5039 12.1461L22.8727 18.3211C22.832 18.2398 22.7508 18.1586 22.6695 18.0773Z" fill="#333E46"/>
<path d="M13.2047 12.7164L13.1641 12.757C13.1641 12.757 13.1641 12.8383 13.2453 12.7977C13.2859 12.757 14.4641 12.1477 14.8703 11.9039L13.4484 2.15391C13.4078 1.78828 13.2453 1.62578 12.9609 1.50391L13.1234 12.7977L13.2047 12.7164Z" fill="#565F64"/>
<path d="M12.5141 2.15391V2.68203L11.6203 11.6602C11.6203 11.782 11.6609 11.9039 11.7828 11.9852L12.3109 12.3914L12.6766 2.47891L12.7172 1.70703C12.5953 1.78828 12.5547 1.95078 12.5141 2.15391ZM12.0266 12.5539L11.5391 12.1477L3.29219 18.1195C3.29219 18.1195 3.04844 18.282 3.00781 18.4445L3.29219 18.282L11.9453 12.8383C12.1078 12.757 12.1484 12.6758 12.0266 12.5539Z" fill="#A4AAAE" fill-opacity="0.6"/>
<path d="M12.8773 13.325C12.8773 13.2844 12.8367 13.2438 12.7961 13.2844L2.96484 18.85C3.20859 19.0125 3.45234 19.0532 3.77734 18.9313L12.9586 15.2344L12.8773 13.325Z" fill="#565F64"/>
<path d="M13.1641 12.7559C13.1641 12.7559 13.1641 12.7965 13.2047 12.7965H13.2453C13.2859 12.7559 14.4641 12.1465 14.8703 11.9027L14.7078 10.7246L13.4484 2.15273C13.4484 1.99023 13.4078 1.86836 13.3266 1.78711C13.3266 1.78711 13.9359 9.99336 13.9359 10.8871C13.9359 12.0652 13.1641 12.7559 13.1641 12.7559Z" fill="url(#paint5_linear_5829_737)"/>
<path d="M12.8773 13.325C12.8773 13.2844 12.8367 13.2438 12.7961 13.2844L2.96484 18.85C3.20859 19.0125 3.45234 19.0532 3.77734 18.9313L12.9586 15.2344L12.8773 13.325Z" fill="url(#paint6_linear_5829_737)" fill-opacity="0.8"/>
<path opacity="0.8" d="M3.77891 18.8906L12.9602 15.1938L12.8789 13.4062C12.7164 13.8937 12.432 14.4219 11.6602 14.8281C11.0914 15.1531 5.64766 17.8344 3.69766 18.7687C3.57578 18.85 3.41328 18.8906 3.33203 18.9312C3.49453 19.0125 3.61641 18.9719 3.77891 18.8906Z" fill="url(#paint7_linear_5829_737)"/>
<path d="M13.2047 12.7164L13.1641 12.757C13.1641 12.757 13.1641 12.8383 13.2453 12.7977C13.2859 12.757 14.4641 12.1477 14.8703 11.9039L13.4484 2.15391C13.4078 1.78828 13.2453 1.62578 12.9609 1.50391L13.1234 12.7977L13.2047 12.7164Z" fill="url(#paint8_linear_5829_737)"/>
<path d="M13.2047 12.7164L13.1641 12.757C13.1641 12.757 13.1641 12.8383 13.2453 12.7977C13.2859 12.757 14.4641 12.1477 14.8703 11.9039L13.4484 2.15391C13.4078 1.78828 13.2453 1.62578 12.9609 1.50391L13.1234 12.7977L13.2047 12.7164Z" fill="url(#paint9_linear_5829_737)"/>
<path d="M2.07266 18.0375C1.78828 17.3875 0.163281 14.2187 1.95078 8.125H1.26016C0.894531 9.34375 0.610156 10.075 0.447656 11.1719C0.447656 11.1719 0.366406 11.5781 0.325781 12.025C0.285156 12.4719 0.285156 12.7156 0.285156 13C0.285156 15.4375 0.894531 16.8594 0.894531 16.8594C1.54453 18.8906 2.68203 20.7188 4.22578 22.1C5.56641 23.2781 7.63828 24.1719 9.34453 24.4969C9.06016 24.4562 4.18516 22.3844 2.07266 18.0375Z" fill="url(#paint10_linear_5829_737)"/>
<path d="M13.1625 13.2434H12.7969C12.8375 13.2434 12.8781 13.2434 12.8781 13.284L12.9594 15.1528H13L13.0813 13.284C13.0813 13.2434 13.1219 13.2028 13.1625 13.2434Z" fill="url(#paint11_linear_5829_737)"/>
<path d="M17.0625 0.933594C21.3281 2.55859 25.35 7.02734 25.35 12.6742C25.35 19.4992 19.9062 25.0648 13 25.0648V25.7148C19.9062 25.7148 25.7156 20.0273 25.7156 12.9992C25.7156 7.39297 22.1406 2.68047 17.0625 0.933594Z" fill="url(#paint12_linear_5829_737)"/>
<path d="M23.8875 8.20664C21.0437 1.66602 14.625 1.30039 14.2594 1.25977H14.2188C19.1344 2.15352 22.2625 5.36289 23.3594 8.73477V8.77539C23.8469 10.0754 24.0906 11.4566 24.1312 12.9598C24.1719 14.3816 23.8469 15.966 23.2375 17.4285C23.1969 17.6316 23.1562 17.8754 23.1156 17.8754H23.7656C25.7156 14.2191 24.8625 10.5223 23.8875 8.20664Z" fill="url(#paint13_linear_5829_737)"/>
<path d="M0.894531 13.0414C0.894531 6.37891 6.29766 0.894531 13.0008 0.894531C19.7039 0.894531 25.107 6.33828 25.107 13.0414C25.107 19.7039 19.7039 25.107 13.0008 25.107C6.29766 25.107 0.894531 19.7039 0.894531 13.0414ZM4.67266 4.67266C2.51953 6.82578 1.17891 9.7914 1.17891 13.0414C1.17891 16.2914 2.51953 19.257 4.63203 21.3695C6.78516 23.482 9.75078 24.8227 13.0008 24.8227C16.2508 24.8227 19.2164 23.5227 21.3289 21.3695C23.482 19.257 24.782 16.2914 24.782 13.0414C24.782 9.7914 23.4414 6.82578 21.3289 4.67266C19.2164 2.51953 16.2508 1.17891 13.0008 1.17891C9.75078 1.17891 6.78516 2.51953 4.67266 4.67266Z" fill="#FBFBFB"/>
<path d="M3.21094 18.1996L11.4984 12.2277C11.9453 12.4715 12.6766 12.7965 12.7578 12.7965C12.8391 12.8371 12.8391 12.7559 12.8391 12.7559L11.8234 11.9027C11.7016 11.8215 11.6609 11.6996 11.6609 11.5777L12.6359 1.78711C12.5953 1.82773 12.5953 1.90898 12.5547 1.94961C12.5141 2.03086 12.5141 2.07148 12.5141 2.15273L11.0922 11.9434L3.29219 18.0777C3.25156 18.1184 3.21094 18.159 3.21094 18.1996Z" fill="#333F47"/>
</g>
<defs>
<linearGradient id="paint0_linear_5829_737" x1="3.24997" y1="4.83434" x2="22.7516" y2="21.1672" gradientUnits="userSpaceOnUse">
<stop stop-color="white"/>
<stop offset="0.1" stop-color="#CDD0D0"/>
<stop offset="0.2" stop-color="#A5ACAF"/>
<stop offset="0.3" stop-color="#98A0A4"/>
<stop offset="0.4" stop-color="#828A8F"/>
<stop offset="0.5" stop-color="#667075"/>
<stop offset="0.6" stop-color="#535C63"/>
<stop offset="0.7" stop-color="#475158"/>
<stop offset="0.8" stop-color="#434D54"/>
<stop offset="1" stop-color="#475157"/>
</linearGradient>
<linearGradient id="paint1_linear_5829_737" x1="3.84603" y1="5.30561" x2="22.1273" y2="20.6619" gradientUnits="userSpaceOnUse">
<stop stop-color="#0B1F2A"/>
<stop offset="0.2" stop-color="#333F47"/>
<stop offset="0.5" stop-color="#81898D"/>
<stop offset="0.7" stop-color="#B3B8B8"/>
<stop offset="0.8" stop-color="#DEE0DD"/>
<stop offset="1" stop-color="#FBFBFB"/>
</linearGradient>
<linearGradient id="paint2_linear_5829_737" x1="17.4432" y1="25.2131" x2="8.54628" y2="0.757251" gradientUnits="userSpaceOnUse">
<stop stop-color="#E1E3E1"/>
<stop offset="0.1" stop-color="#C1C5C4"/>
<stop offset="0.3" stop-color="#9BA1A2"/>
<stop offset="0.5" stop-color="#7D8487"/>
<stop offset="0.7" stop-color="#687074" stop-opacity="0"/>
<stop offset="0.8" stop-color="#5B6469" stop-opacity="0"/>
<stop offset="1" stop-color="#576065" stop-opacity="0"/>
</linearGradient>
<linearGradient id="paint3_linear_5829_737" x1="7.39572" y1="3.29064" x2="18.6074" y2="22.7086" gradientUnits="userSpaceOnUse">
<stop stop-color="#E1E3E1"/>
<stop offset="0.1" stop-color="#C1C5C4"/>
<stop offset="0.3" stop-color="#9BA1A2"/>
<stop offset="0.5" stop-color="#7D8487"/>
<stop offset="0.7" stop-color="#687074" stop-opacity="0"/>
<stop offset="0.8" stop-color="#5B6469" stop-opacity="0"/>
<stop offset="1" stop-color="#576065" stop-opacity="0"/>
</linearGradient>
<linearGradient id="paint4_linear_5829_737" x1="18.074" y1="16.0034" x2="17.3834" y2="17.1409" gradientUnits="userSpaceOnUse">
<stop stop-color="#27343C"/>
<stop offset="1" stop-color="#00111E" stop-opacity="0"/>
</linearGradient>
<linearGradient id="paint5_linear_5829_737" x1="16.0809" y1="11.8264" x2="14.9434" y2="9.99824" gradientUnits="userSpaceOnUse">
<stop offset="0.1" stop-color="#02131F"/>
<stop offset="0.9" stop-color="#02131F" stop-opacity="0"/>
</linearGradient>
<linearGradient id="paint6_linear_5829_737" x1="12.9919" y1="14.7615" x2="11.2857" y2="15.249" gradientUnits="userSpaceOnUse">
<stop offset="0.2" stop-color="#02131F"/>
<stop offset="0.9" stop-color="#02131F" stop-opacity="0"/>
</linearGradient>
<linearGradient id="paint7_linear_5829_737" x1="8.44713" y1="17.0235" x2="8.20338" y2="16.4141" gradientUnits="userSpaceOnUse">
<stop stop-color="#02131F"/>
<stop offset="0.1" stop-color="#02131F"/>
<stop offset="1" stop-color="#02131F" stop-opacity="0"/>
</linearGradient>
<linearGradient id="paint8_linear_5829_737" x1="14.4649" y1="6.99397" x2="13.0836" y2="7.15647" gradientUnits="userSpaceOnUse">
<stop offset="0.3" stop-color="#02131F"/>
<stop offset="0.8" stop-color="#02131F" stop-opacity="0"/>
</linearGradient>
<linearGradient id="paint9_linear_5829_737" x1="14.5079" y1="6.97081" x2="13.5732" y2="7.09269" gradientUnits="userSpaceOnUse">
<stop offset="0.4" stop-color="#27343C"/>
<stop offset="1" stop-color="#3B474E" stop-opacity="0"/>
</linearGradient>
<linearGradient id="paint10_linear_5829_737" x1="-0.145469" y1="13.3376" x2="11.1889" y2="19.8782" gradientUnits="userSpaceOnUse">
<stop stop-color="#25323B" stop-opacity="0"/>
<stop offset="0.1" stop-color="#27343C"/>
</linearGradient>
<linearGradient id="paint11_linear_5829_737" x1="12.9797" y1="15.1934" x2="12.9797" y2="13.2434" gradientUnits="userSpaceOnUse">
<stop offset="0.3" stop-color="#A5ABAF"/>
<stop offset="1" stop-color="#A5ABAF" stop-opacity="0"/>
</linearGradient>
<linearGradient id="paint12_linear_5829_737" x1="19.3578" y1="0.933594" x2="19.3578" y2="25.7148" gradientUnits="userSpaceOnUse">
<stop stop-color="#6B7378"/>
<stop offset="0.2" stop-color="#333F47"/>
<stop offset="0.5" stop-color="#27343C"/>
<stop offset="0.8" stop-color="#333F47"/>
<stop offset="1" stop-color="#434D54"/>
</linearGradient>
<linearGradient id="paint13_linear_5829_737" x1="23.2737" y1="3.28817" x2="17.7893" y2="11.3319" gradientUnits="userSpaceOnUse">
<stop offset="0.7" stop-color="#49545B"/>
<stop offset="0.8" stop-color="white" stop-opacity="0"/>
</linearGradient>
<clipPath id="clip0_5829_737">
<rect width="26" height="26" fill="white"/>
</clipPath>
</defs>
</svg>
