<svg width="30" height="24" viewBox="0 0 30 24" fill="none" xmlns="http://www.w3.org/2000/svg">
<path fill-rule="evenodd" clip-rule="evenodd" d="M29.614 10.4223C28.7625 7.29532 24.6937 5.71925 24.6937 5.71925C23.6081 5.32415 24.0416 5.94471 24.0416 5.94471C24.0416 5.94471 28.7235 8.08796 28.7235 11.0713C28.7235 14.7662 23.6217 15.8713 23.6217 15.8713C28.2619 14.4031 28.2753 11.2699 28.2753 11.2699C28.1938 8.13728 24.0416 5.94471 24.0416 5.94471C22.4407 5.0415 21.5723 4.8155 21.5723 4.8155C19.4829 4.11933 20.1608 4.9285 20.1608 4.9285C20.1608 4.9285 26.4643 6.90374 26.4643 11.2612C26.4643 15.712 17.6782 17.1417 17.6782 17.1417C25.94 15.6171 25.9417 11.2981 25.9417 11.2981C25.9417 7.40778 20.1608 4.9285 20.1608 4.9285C19.2927 4.45834 17.8202 4.07949 17.8202 4.07949C16.4561 3.79035 17.2299 4.383 17.2299 4.383C22.7664 7.60073 22.7664 11.1572 22.7664 11.1572C22.7664 15.1093 19.1229 16.0968 19.1229 16.0968C18.0643 16.5062 16.016 16.8339 16.016 16.8339C15.6844 16.9314 15.4525 17.1582 15.4525 17.4241C15.4525 17.5314 15.4787 17.6376 15.5574 17.7219C15.7574 17.9344 16.4307 18.4324 16.4307 18.4324C16.6719 18.6582 16.8128 18.9376 16.8128 19.24C16.8128 19.9819 15.955 20.5841 14.8893 20.5979H14.8108C13.7454 20.5841 12.8867 19.9822 12.8867 19.24C12.8867 18.9376 13.0284 18.6582 13.269 18.4324C13.269 18.4324 13.9421 17.9344 14.1421 17.7219C14.2208 17.6376 14.2478 17.5317 14.2478 17.4241C14.2478 17.1582 14.0154 16.9314 13.684 16.8339C13.684 16.8339 11.6355 16.5065 10.5769 16.0968C10.5769 16.0968 6.93341 15.1096 6.93341 11.1572C6.93341 11.1572 6.93341 7.60046 12.4698 4.383C12.4698 4.383 13.2434 3.79035 11.8796 4.07949C11.8796 4.07949 10.4071 4.45834 9.53895 4.9285C9.53895 4.9285 3.75837 7.40751 3.75837 11.2981C3.75837 11.2981 3.75946 15.6171 12.0221 17.1417C12.0221 17.1417 3.23574 15.7122 3.23574 11.2612C3.23574 6.90374 9.53895 4.9285 9.53895 4.9285C9.53895 4.9285 10.2169 4.11933 8.12746 4.8155C8.12746 4.8155 7.25903 5.04123 5.65789 5.94471C5.65789 5.94471 1.50544 8.13728 1.42423 11.2699C1.42423 11.2699 1.43759 14.4031 6.07834 15.8713C6.07834 15.8713 0.976262 14.7659 0.976262 11.0713C0.976262 8.08796 5.65789 5.94471 5.65789 5.94471C5.65789 5.94471 6.09197 5.32388 5.00664 5.71925C5.00664 5.71925 0.937024 7.29559 0.0860422 10.4223C0.0860422 10.4223 -0.172005 11.6003 0.205665 12.4606C0.663446 13.5142 1.85722 15.2594 4.89765 16.2374C4.89765 16.2374 6.28189 16.8027 11.8186 17.9035L12.1448 17.9774C12.1448 17.9774 12.3829 18.0812 12.2123 18.2682L11.4496 18.9202C11.4496 18.9202 10.3311 19.776 11.9276 20.4963C11.9276 20.4963 12.9017 20.8263 13.5884 21.5575C13.5884 21.5575 14.0301 21.9753 14.7781 21.9962V21.9992H14.828C14.8301 21.9992 14.832 22 14.8337 22V21.9992H14.8658V22L14.8716 21.9992H14.9059V21.9981C15.6637 21.9818 16.1108 21.5575 16.1108 21.5575C16.7978 20.8263 17.7714 20.4963 17.7714 20.4963C19.3684 19.776 18.2493 18.9202 18.2493 18.9202L17.4872 18.2682C17.3169 18.0812 17.5547 17.9774 17.5547 17.9774L17.8804 17.9035C23.4168 16.8027 24.8016 16.2374 24.8016 16.2374C27.842 15.2594 29.0358 13.5145 29.4941 12.4606C29.8721 11.6003 29.614 10.4223 29.614 10.4223Z" fill="#1A3B73"/>
</svg>
