<svg width="30" height="24" viewBox="0 0 30 24" fill="none" xmlns="http://www.w3.org/2000/svg">
<g clip-path="url(#clip0_5829_1054)">
<path d="M25.2941 12.5004C25.2941 18.3384 20.4617 23.0711 14.5005 23.0711C8.53945 23.0711 3.70703 18.3384 3.70703 12.5004C3.70703 6.66233 8.53945 1.92969 14.5005 1.92969C20.4617 1.92968 25.2941 6.66233 25.2941 12.5004Z" fill="#BEC7CB" stroke="#0072CF" stroke-miterlimit="18.2"/>
<path d="M14.4973 22.64C20.2128 22.64 24.8461 18.1005 24.8461 12.5007C24.8461 6.90087 20.2128 2.36133 14.4973 2.36133C8.78176 2.36133 4.14844 6.90087 4.14844 12.5007C4.14844 18.1005 8.78176 22.64 14.4973 22.64Z" fill="url(#paint0_linear_5829_1054)"/>
<path d="M22.5842 12.4538C22.5847 16.9316 18.9158 20.5618 14.3898 20.5618C9.86372 20.5618 6.19479 16.9316 6.19531 12.4538C6.19479 7.97596 9.86373 4.3457 14.3898 4.3457C18.9158 4.3457 22.5847 7.97592 22.5842 12.4538Z" fill="white"/>
<path d="M14.4951 19.7391C18.5569 19.7391 21.8496 16.5017 21.8496 12.5082C21.8496 8.51472 18.5569 5.27734 14.4951 5.27734C10.4333 5.27734 7.14062 8.51472 7.14062 12.5082C7.14062 16.5017 10.4333 19.7391 14.4951 19.7391Z" fill="url(#paint1_radial_5829_1054)"/>
<path opacity="0.65" d="M14.8603 4.05273C9.95267 4.05273 5.96875 7.95443 5.96875 12.7608C5.96875 17.5672 9.95267 21.4675 14.8603 21.4675C19.7681 21.4675 23.7506 17.5672 23.7506 12.7608C23.7506 7.95437 19.768 4.05273 14.8603 4.05273ZM14.79 5.25894C15.5484 5.25351 16.3064 5.35549 17.0329 5.56611L15.904 8.00628L14.7833 10.3974L13.6815 7.99433L12.5486 5.5992C13.273 5.37743 14.0317 5.26432 14.79 5.25894ZM18.6633 6.2506C19.4199 6.68182 20.2146 7.26559 20.9994 8.28693C19.8645 10.9311 18.6316 13.7643 17.4818 16.4177L15.9622 13.011H13.5815L12.0227 16.3595C10.8257 13.7284 9.66982 11.1058 8.6226 8.41268C9.36012 7.39201 10.1082 6.84013 10.8587 6.35251C11.7557 8.36476 12.6534 10.3765 13.5504 12.3887H15.9581C16.8613 10.3566 17.7597 8.27779 18.6633 6.2506ZM22.104 10.3352C22.2183 10.6827 22.4162 11.3212 22.4906 12.3133C22.5273 12.8013 22.5079 13.4562 22.3892 14.0914C22.1885 15.166 21.7266 16.267 20.9954 17.2227C20.8434 17.4213 20.6788 17.6133 20.5019 17.8013C19.8329 18.5125 18.9695 19.159 17.9156 19.6192C18.2379 19.0573 18.5328 18.4861 18.7985 17.9179C19.1724 17.1178 19.5474 16.3188 19.8935 15.5095C19.9764 15.3157 20.0686 15.1253 20.1571 14.9335C20.4714 14.2522 20.77 13.5494 21.0589 12.8587C21.3702 12.1143 21.8256 11.0981 22.104 10.3352ZM7.55316 10.5206C7.8315 11.2835 8.11928 12.064 8.43058 12.8085C8.71936 13.4992 9.02211 14.1927 9.33637 14.8739C10.0613 16.4456 10.8201 17.9983 11.6333 19.5491C10.2473 18.8957 9.32091 18.042 8.62796 17.0957C7.5452 15.6171 7.19616 13.9909 7.21112 12.6973C7.22294 11.6764 7.43554 10.8579 7.55316 10.5206ZM14.7549 15.0712L17.0599 19.9303C16.4533 20.1297 15.8055 20.2143 15.1456 20.2309C15.0406 20.2335 14.936 20.2341 14.8306 20.2335C13.9486 20.2287 13.1973 20.1136 12.5093 19.8826L14.7549 15.0712Z" fill="black"/>
<path opacity="0.5" d="M15.1181 3.97852C10.2104 3.97852 6.22656 7.88018 6.22656 12.6866C6.22656 17.493 10.2104 21.3933 15.1181 21.3933C20.0259 21.3933 24.0084 17.493 24.0084 12.6866C24.0084 7.88018 20.0259 3.97852 15.1181 3.97852ZM15.0478 5.18472C15.8061 5.17931 16.5643 5.28132 17.2907 5.49189L16.1619 7.93202L15.0411 10.3232L13.9393 7.92013L12.8063 5.52499C13.5308 5.30323 14.2895 5.1901 15.0478 5.18472ZM18.9211 6.17641C19.6778 6.60768 20.4724 7.19138 21.2572 8.21275C20.1223 10.8569 18.8894 13.6901 17.7395 16.3435L16.2199 12.9369H13.8392L12.2805 16.2853C11.0835 13.6542 9.92757 11.0316 8.88035 8.33855C9.61788 7.31788 10.366 6.76596 11.1165 6.27838C12.0134 8.29063 12.9112 10.3023 13.8081 12.3146H16.2159C17.1191 10.2823 18.0175 8.20357 18.9211 6.17641ZM22.3618 10.261C22.4761 10.6085 22.674 11.247 22.7484 12.2391C22.7851 12.7272 22.7657 13.3819 22.647 14.0173C22.4463 15.0918 21.9844 16.1929 21.2532 17.1486C21.1012 17.3472 20.9366 17.5391 20.7597 17.7271C20.0907 18.4383 19.2274 19.0848 18.1735 19.545C18.4958 18.9831 18.7907 18.4119 19.0563 17.8436C19.4303 17.0436 19.8053 16.2445 20.1514 15.4353C20.2343 15.2415 20.3265 15.0511 20.415 14.8593C20.7293 14.178 21.028 13.4752 21.3168 12.7845C21.628 12.0401 22.0834 11.0239 22.3618 10.261ZM7.81101 10.4464C8.08937 11.2093 8.37712 11.9897 8.68841 12.7343C8.97717 13.4249 9.27992 14.1185 9.59417 14.7997C10.3192 16.3713 11.078 17.9241 11.8911 19.4749C10.5051 18.8214 9.57876 17.9678 8.88575 17.0215C7.80305 15.5429 7.45395 13.9167 7.46893 12.6231C7.48074 11.6022 7.69337 10.7837 7.81101 10.4464ZM15.0127 14.997L17.3177 19.8562C16.7111 20.0556 16.0633 20.1401 15.4034 20.1567C15.2984 20.1593 15.1939 20.1599 15.0884 20.1594C14.2064 20.1546 13.4551 20.0394 12.7671 19.8085L15.0127 14.997Z" fill="black"/>
<path d="M14.501 3.79883C9.59326 3.79883 5.60938 7.7005 5.60938 12.5069C5.60938 17.3133 9.59327 21.2136 14.501 21.2136C19.4087 21.2136 23.3913 17.3133 23.3913 12.5069C23.3913 7.70046 19.4087 3.79883 14.501 3.79883ZM14.4307 5.00502C15.189 4.99959 15.9471 5.10158 16.6735 5.31217L15.5447 7.75237L14.4239 10.1435L13.3221 7.74041L12.1892 5.34529C12.9137 5.12351 13.6724 5.01045 14.4307 5.00502ZM18.304 5.99669C19.0606 6.42792 19.8553 7.01166 20.6401 8.03301C19.5051 10.6771 18.2722 13.5104 17.1224 16.1638L15.6028 12.7571H13.2221L11.6633 16.1056C10.4664 13.4745 9.31046 10.8519 8.26321 8.1588C9.00074 7.13815 9.74883 6.58624 10.4993 6.09865C11.3963 8.11088 12.294 10.1226 13.191 12.1348H15.5987C16.5019 10.1027 17.4003 8.02387 18.304 5.99669ZM21.7446 10.0813C21.8589 10.4288 22.0568 11.0673 22.1312 12.0594C22.1679 12.5475 22.1485 13.2023 22.0298 13.8376C21.8291 14.9121 21.3672 16.0132 20.636 16.9688C20.484 17.1675 20.3194 17.3595 20.1425 17.5474C19.4736 18.2586 18.6101 18.9052 17.5563 19.3653C17.8785 18.8034 18.1735 18.2322 18.4391 17.664C18.813 16.8639 19.1881 16.0648 19.5341 15.2555C19.617 15.0617 19.7093 14.8714 19.7978 14.6796C20.1121 13.9984 20.4108 13.2956 20.6995 12.6049C21.0108 11.8604 21.4663 10.8443 21.7446 10.0813ZM7.19379 10.2667C7.47215 11.0297 7.75993 11.8101 8.07119 12.5546C8.35995 13.2453 8.66274 13.9389 8.97699 14.6201C9.70196 16.1917 10.4608 17.7444 11.2739 19.2952C9.88791 18.6418 8.96155 17.7881 8.26859 16.8418C7.18587 15.3632 6.83681 13.7371 6.85177 12.4434C6.86359 11.4225 7.07622 10.604 7.19379 10.2667ZM14.3956 14.8173L16.7006 19.6764C16.094 19.8759 15.4462 19.9604 14.7863 19.977C14.6813 19.9796 14.5767 19.9802 14.4713 19.9796C13.5893 19.9748 12.8379 19.8597 12.15 19.6288L14.3956 14.8173Z" fill="url(#paint2_linear_5829_1054)" stroke="#1F8CE4" stroke-width="0.693659" stroke-miterlimit="18.2"/>
</g>
<defs>
<linearGradient id="paint0_linear_5829_1054" x1="11.5358" y1="8.52233" x2="23.2238" y2="24.8793" gradientUnits="userSpaceOnUse">
<stop stop-color="#1077B9"/>
<stop offset="1" stop-color="#042A54"/>
</linearGradient>
<radialGradient id="paint1_radial_5829_1054" cx="0" cy="0" r="1" gradientUnits="userSpaceOnUse" gradientTransform="translate(12.159 7.17066) scale(27.0198 26.4723)">
<stop stop-color="#209BD3"/>
<stop offset="0.546" stop-color="#136194"/>
<stop offset="1" stop-color="#0A3B6C"/>
</radialGradient>
<linearGradient id="paint2_linear_5829_1054" x1="9.598" y1="5.66807" x2="29.0822" y2="33.982" gradientUnits="userSpaceOnUse">
<stop stop-color="white"/>
<stop offset="0.5" stop-color="white"/>
<stop offset="1" stop-color="#989B9E"/>
</linearGradient>
<clipPath id="clip0_5829_1054">
<rect width="30" height="24" fill="white"/>
</clipPath>
</defs>
</svg>
