<svg width="81" height="22" viewBox="0 0 81 22" fill="none" xmlns="http://www.w3.org/2000/svg">
<g clip-path="url(#clip0_5829_462)">
<path d="M18.3653 18.9303H13.4205V12.8207L8.47573 7.87729V2.4349H18.3595L18.3653 18.9303ZM1.88461 18.9303V2.4349H6.82359V8.55614L11.7683 13.4995V18.9245L1.88461 18.9303ZM20.0116 0.787109H0.238281V20.578H20.0116V0.787109Z" fill="black"/>
<path d="M35.4471 7.47248L30.3226 12.822H35.1804V13.9128H27.6328V13.8896L32.7573 8.54589H27.9169V7.45508H35.4528V7.47248H35.4471Z" fill="black"/>
<path d="M67.4913 13.9186L62.7552 10.5824V13.9186H61.4336V7.45508H62.7552V10.565L67.358 7.45508H69.3927L64.7668 10.5418L69.5493 13.9128H67.4913V13.9186Z" fill="black"/>
<path d="M80.8198 13.9186L77.2319 11.5049H77.8982C79.1618 11.5049 80.269 10.7797 80.269 9.54965V9.4626C80.269 8.20935 79.1505 7.45508 77.8517 7.45508H72.5938V13.9128H73.9158V10.5418L78.8723 13.9128H80.8198V13.9186ZM73.9102 8.55166H77.8749C78.368 8.55166 78.8258 8.74895 78.9533 9.1493C78.9589 9.21889 78.9765 9.38716 78.9765 9.55543C78.9765 9.72947 78.9653 9.89774 78.9533 9.96156C78.8202 10.3155 78.368 10.5302 77.8749 10.5302H73.9102V8.55166Z" fill="black"/>
<path d="M46.1679 12.7698V13.9186H39.4609V7.45508H46.1679V8.60393H40.7421V9.99058H45.884V11.1394H40.7421V12.764H46.1679V12.7698Z" fill="black"/>
<path d="M57.1524 12.7698V13.9186H50.4453V7.45508H57.1524V8.60393H51.7265V9.99058H56.8683V11.1394H51.7265V12.764H57.1524V12.7698Z" fill="black"/>
</g>
<defs>
<clipPath id="clip0_5829_462">
<rect width="81" height="20.4261" fill="white" transform="translate(0 0.787109)"/>
</clipPath>
</defs>
</svg>
